<svg width="1920" height="110" viewBox="0 0 1920 110" fill="none" xmlns="http://www.w3.org/2000/svg">
<path d="M-185.895 38.2344H-180.953C-177.789 38.2344 -174.508 38.2083 -171.109 38.1562L-170.973 38.3125L-172.184 44.8164L-173.238 44.9727L-174.488 40.2266H-182.047V50.5977H-180.992C-179.859 50.5977 -178.642 50.5846 -177.34 50.5586C-177.001 50.5456 -176.78 50.3698 -176.676 50.0312L-175.973 47.3555L-174.684 47.2969C-174.723 49.1849 -174.742 50.5977 -174.742 51.5352C-174.742 52.4466 -174.723 53.8398 -174.684 55.7148L-175.973 55.8125L-176.695 53.0586C-176.799 52.707 -177.001 52.5247 -177.301 52.5117C-178.629 52.4857 -179.866 52.4727 -181.012 52.4727H-182.047V59.1719C-182.047 60.6042 -182.034 62.0234 -182.008 63.4297H-174.195L-171.734 58.293L-170.543 58.1172L-171.012 65.4219L-171.148 65.5586C-174.391 65.5195 -177.548 65.5 -180.621 65.5H-185.797C-187.477 65.5 -189.208 65.5195 -190.992 65.5586L-191.09 64.582L-188.473 63.8594C-188.147 63.7682 -187.971 63.5664 -187.945 63.2539C-187.932 62.7331 -187.926 62.1536 -187.926 61.5156C-187.913 60.8646 -187.906 60.1484 -187.906 59.3672V43.8008C-187.906 43.1497 -187.913 42.5573 -187.926 42.0234C-187.926 41.4896 -187.932 41.0013 -187.945 40.5586C-187.958 40.2201 -188.115 40.0052 -188.414 39.9141L-191.031 39.1523L-191.09 38.1562C-189.267 38.2083 -187.535 38.2344 -185.895 38.2344ZM-140.641 65.5586C-142.451 65.5195 -144.462 65.5 -146.676 65.5C-148.746 65.5 -151.031 65.5195 -153.531 65.5586L-153.668 64.582L-151.93 64.1133C-151.656 64.0352 -151.461 63.9375 -151.344 63.8203C-151.227 63.6901 -151.168 63.5339 -151.168 63.3516C-151.168 63.0391 -151.285 62.6745 -151.52 62.2578C-151.754 61.8281 -152.008 61.3919 -152.281 60.9492L-156.52 54.25L-160.367 60.2461C-160.771 60.8581 -161.129 61.431 -161.441 61.9648C-161.754 62.4987 -161.91 62.9479 -161.91 63.3125C-161.91 63.4948 -161.865 63.651 -161.773 63.7812C-161.682 63.8984 -161.5 63.9961 -161.227 64.0742L-159.547 64.543L-159.488 65.5586C-160.947 65.5195 -162.516 65.5 -164.195 65.5C-165.706 65.5 -167.236 65.5195 -168.785 65.5586L-168.883 64.582L-166.637 63.957C-166.155 63.8008 -165.738 63.5729 -165.387 63.2734C-165.035 62.9609 -164.658 62.4922 -164.254 61.8672L-157.789 52.2578L-164.469 41.6523C-164.898 40.9753 -165.27 40.5065 -165.582 40.2461C-165.882 39.9727 -166.24 39.7839 -166.656 39.6797L-168.688 39.1523L-168.766 38.1562C-166.93 38.2083 -164.814 38.2344 -162.418 38.2344C-160.348 38.2344 -158.16 38.2083 -155.855 38.1562L-155.738 39.1523L-157.457 39.6211C-157.73 39.6862 -157.926 39.7839 -158.043 39.9141C-158.16 40.0312 -158.219 40.1875 -158.219 40.3828C-158.219 40.6953 -158.102 41.0664 -157.867 41.4961C-157.62 41.9128 -157.359 42.3424 -157.086 42.7852L-153.746 48.0977L-150.738 43.4688C-150.322 42.8698 -149.957 42.2904 -149.645 41.7305C-149.332 41.1706 -149.176 40.7344 -149.176 40.4219C-149.176 40.0703 -149.436 39.8164 -149.957 39.6602L-151.676 39.1914L-151.734 38.1562C-150.289 38.2083 -148.733 38.2344 -147.066 38.2344C-145.452 38.2344 -143.928 38.2083 -142.496 38.1562L-142.379 39.1523L-144.566 39.7578C-145.074 39.9141 -145.484 40.1484 -145.797 40.4609C-146.096 40.7734 -146.507 41.3138 -147.027 42.082L-152.496 50.0898L-145.074 61.8281C-144.54 62.6745 -144.137 63.2279 -143.863 63.4883C-143.577 63.7357 -143.193 63.918 -142.711 64.0352L-140.699 64.582L-140.641 65.5586ZM-119.625 45.5391L-120.699 45.7148L-122.184 40.1094C-123.212 39.7839 -124.326 39.6211 -125.523 39.6211C-128.401 39.6211 -130.628 40.7018 -132.203 42.8633C-133.779 45.0117 -134.566 47.8307 -134.566 51.3203C-134.566 55.0443 -133.642 58.013 -131.793 60.2266C-129.931 62.4401 -127.353 63.5469 -124.059 63.5469C-122.223 63.5469 -120.289 63.1758 -118.258 62.4336L-118.004 63.5469C-120.608 65.3177 -123.551 66.2031 -126.832 66.2031C-131.09 66.2031 -134.534 64.9206 -137.164 62.3555C-139.781 59.7904 -141.09 56.4115 -141.09 52.2188C-141.09 47.7526 -139.651 44.2174 -136.773 41.6133C-133.896 39.0091 -130.139 37.707 -125.504 37.707C-123.212 37.707 -120.868 37.974 -118.473 38.5078L-118.355 38.7031L-119.625 45.5391ZM-105.875 43.7227V59.1719C-105.875 60.6042 -105.862 62.0234 -105.836 63.4297H-98.1992L-95.5234 57.8828L-94.332 57.707L-94.8203 65.4219L-94.957 65.5586C-98.1732 65.5195 -101.318 65.5 -104.391 65.5H-109.234C-111.174 65.5 -112.971 65.5195 -114.625 65.5586L-114.723 64.582L-112.301 63.8594C-111.975 63.7682 -111.799 63.5664 -111.773 63.2539C-111.76 62.7331 -111.754 62.1536 -111.754 61.5156C-111.741 60.8646 -111.734 60.1484 -111.734 59.3672V43.8008C-111.734 43.1497 -111.741 42.5573 -111.754 42.0234C-111.754 41.4896 -111.76 41.0013 -111.773 40.5586C-111.786 40.2201 -111.943 40.0052 -112.242 39.9141L-114.664 39.1523L-114.723 38.1562C-113.043 38.2083 -111.103 38.2344 -108.902 38.2344C-106.637 38.2344 -104.671 38.2083 -103.004 38.1562L-102.906 39.1523L-105.328 39.875C-105.641 39.9531 -105.81 40.1484 -105.836 40.4609C-105.849 40.9297 -105.862 41.6003 -105.875 42.4727C-105.875 43.332 -105.875 43.7487 -105.875 43.7227ZM-93.5312 38.1562C-91.7214 38.2083 -89.7161 38.2344 -87.5156 38.2344C-85.25 38.2344 -83.2448 38.2083 -81.5 38.1562L-81.4023 39.1523L-83.9414 39.875C-84.2539 39.9531 -84.4232 40.1484 -84.4492 40.4609C-84.4622 40.9297 -84.4753 41.4375 -84.4883 41.9844C-84.4883 42.5182 -84.4883 43.0977 -84.4883 43.7227V54.4844C-84.4883 58.0391 -83.9544 60.5 -82.8867 61.8672C-81.819 63.2214 -80.0872 63.8984 -77.6914 63.8984C-75.3346 63.8984 -73.5703 63.1823 -72.3984 61.75C-71.2135 60.3047 -70.6211 57.9674 -70.6211 54.7383V43.7227C-70.6211 43.0977 -70.6276 42.5182 -70.6406 41.9844C-70.6536 41.4375 -70.6667 40.9297 -70.6797 40.4609C-70.6927 40.1615 -70.862 39.9661 -71.1875 39.875L-73.6094 39.1914L-73.668 38.1562C-71.9362 38.2083 -70.4388 38.2344 -69.1758 38.2344C-68.0039 38.2344 -66.5326 38.2083 -64.7617 38.1562L-64.6641 39.1523L-67.3203 39.9141C-67.6328 40.0052 -67.7956 40.2201 -67.8086 40.5586C-67.8216 41.0013 -67.8346 41.4896 -67.8477 42.0234C-67.8477 42.5573 -67.8477 43.1497 -67.8477 43.8008V53.7227C-67.8477 58.2018 -68.7721 61.418 -70.6211 63.3711C-72.457 65.3112 -75.1328 66.2812 -78.6484 66.2812C-82.6458 66.2812 -85.5951 65.3568 -87.4961 63.5078C-89.3971 61.6458 -90.3477 58.6706 -90.3477 54.582V43.8008C-90.3477 43.1497 -90.3542 42.5573 -90.3672 42.0234C-90.3672 41.4896 -90.3737 41.0013 -90.3867 40.5586C-90.3997 40.2201 -90.556 40.0052 -90.8555 39.9141L-93.4727 39.1523L-93.5312 38.1562ZM-48.7656 40.0117C-49.599 39.6862 -50.5039 39.5234 -51.4805 39.5234C-52.8607 39.5234 -54.0326 39.9271 -54.9961 40.7344C-55.9466 41.5417 -56.4219 42.5833 -56.4219 43.8594C-56.4219 44.6276 -56.2656 45.2852 -55.9531 45.832C-55.6406 46.3789 -55.224 46.8672 -54.7031 47.2969C-54.1823 47.7266 -53.5898 48.1107 -52.9258 48.4492C-52.2487 48.7878 -51.5521 49.1263 -50.8359 49.4648C-50.0417 49.8424 -49.2409 50.2591 -48.4336 50.7148C-47.6263 51.1576 -46.9036 51.6914 -46.2656 52.3164C-45.6276 52.9284 -45.1133 53.6641 -44.7227 54.5234C-44.319 55.3828 -44.1172 56.4245 -44.1172 57.6484C-44.1172 60.2917 -45.1133 62.3685 -47.1055 63.8789C-49.0977 65.3893 -51.7279 66.1445 -54.9961 66.1445C-57.3529 66.1445 -59.6771 65.7734 -61.9688 65.0312L-62.0859 64.8555L-61.0508 57.8242L-59.8398 57.6289L-58.375 63.6055C-57.4375 64.0352 -56.3958 64.25 -55.25 64.25C-53.5964 64.25 -52.2682 63.8333 -51.2656 63C-50.25 62.1536 -49.7422 61.0273 -49.7422 59.6211C-49.7422 58.8268 -49.8984 58.1562 -50.2109 57.6094C-50.5234 57.0495 -50.9466 56.5547 -51.4805 56.125C-52.0143 55.6823 -52.6198 55.2917 -53.2969 54.9531C-53.974 54.6146 -54.6771 54.276 -55.4062 53.9375C-56.2005 53.5469 -56.9948 53.1367 -57.7891 52.707C-58.5833 52.2773 -59.293 51.7565 -59.918 51.1445C-60.543 50.5326 -61.0508 49.8034 -61.4414 48.957C-61.832 48.0977 -62.0273 47.0625 -62.0273 45.8516C-62.0273 43.3646 -61.0768 41.3854 -59.1758 39.9141C-57.2747 38.4427 -54.8073 37.707 -51.7734 37.707C-49.8464 37.707 -47.6523 38.0065 -45.1914 38.6055L-45.0742 38.7812L-46.2656 45.0703L-47.3398 45.2461L-48.7656 40.0117ZM-32.0078 59.3672C-32.0078 60.1484 -32.0078 60.8581 -32.0078 61.4961C-31.9948 62.1341 -31.9818 62.707 -31.9688 63.2148C-31.9557 63.5534 -31.7344 63.7812 -31.3047 63.8984L-28.9023 64.582L-28.8438 65.5586C-30.6536 65.5195 -32.6589 65.5 -34.8594 65.5C-37.138 65.5 -39.1693 65.5195 -40.9531 65.5586L-41.0508 64.582L-38.4336 63.8594C-38.1081 63.7682 -37.9323 63.5664 -37.9062 63.2539C-37.8932 62.7331 -37.8867 62.1536 -37.8867 61.5156C-37.8737 60.8646 -37.8672 60.1484 -37.8672 59.3672V43.8008C-37.8672 43.1497 -37.8737 42.5573 -37.8867 42.0234C-37.8867 41.4896 -37.8932 41.0013 -37.9062 40.5586C-37.9193 40.2201 -38.0755 40.0052 -38.375 39.9141L-40.9922 39.1523L-41.0508 38.1562C-39.2409 38.2083 -37.2357 38.2344 -35.0352 38.2344C-32.7695 38.2344 -30.7383 38.2083 -28.9414 38.1562L-28.8438 39.1523L-31.4609 39.875C-31.7734 39.9531 -31.9427 40.1484 -31.9688 40.4609C-31.9818 40.9297 -31.9948 41.4375 -32.0078 41.9844C-32.0078 42.5182 -32.0078 43.0977 -32.0078 43.7227V59.3672ZM-12.75 55.7734C-12.5026 56.5156 -12.2747 57.2318 -12.0664 57.9219C-11.832 57.2318 -11.5846 56.5221 -11.3242 55.793L-6.61719 43.2539C-6.35677 42.5247 -6.15495 41.9453 -6.01172 41.5156C-5.85547 41.0859 -5.77734 40.7474 -5.77734 40.5C-5.77734 40.2786 -5.84245 40.1094 -5.97266 39.9922C-6.08984 39.875 -6.27214 39.7839 -6.51953 39.7188L-8.375 39.1914L-8.43359 38.1562C-6.54557 38.2083 -5.00911 38.2344 -3.82422 38.2344C-2.58724 38.2344 -1.18099 38.2083 0.394531 38.1562L0.511719 39.1523L-1.59766 39.7578C-2.07943 39.9141 -2.4375 40.1549 -2.67188 40.4805C-2.90625 40.806 -3.16667 41.3138 -3.45312 42.0039L-13.043 65.5977L-15.0938 65.793L-23.4727 42.2383C-23.7982 41.3398 -24.0977 40.7344 -24.3711 40.4219C-24.6315 40.0964 -25.0091 39.8555 -25.5039 39.6992L-27.3984 39.1523L-27.4766 38.1562C-25.7057 38.2083 -23.9349 38.2344 -22.1641 38.2344C-19.8073 38.2344 -17.5091 38.2083 -15.2695 38.1562L-15.1719 39.1523L-17.0859 39.6992C-17.3464 39.7773 -17.5352 39.875 -17.6523 39.9922C-17.7695 40.1094 -17.8281 40.2852 -17.8281 40.5195C-17.8281 40.7799 -17.763 41.125 -17.6328 41.5547C-17.5026 41.9714 -17.3138 42.5312 -17.0664 43.2344L-12.75 55.7734ZM6.29297 38.2344H11.2344C14.3984 38.2344 17.6797 38.2083 21.0781 38.1562L21.2148 38.3125L20.0039 44.8164L18.9492 44.9727L17.6992 40.2266H10.1406V50.5977H11.1953C12.3281 50.5977 13.5456 50.5846 14.8477 50.5586C15.1862 50.5456 15.4076 50.3698 15.5117 50.0312L16.2148 47.3555L17.5039 47.2969C17.4648 49.1849 17.4453 50.5977 17.4453 51.5352C17.4453 52.4466 17.4648 53.8398 17.5039 55.7148L16.2148 55.8125L15.4922 53.0586C15.388 52.707 15.1862 52.5247 14.8867 52.5117C13.5586 52.4857 12.3216 52.4727 11.1758 52.4727H10.1406V59.1719C10.1406 60.6042 10.1536 62.0234 10.1797 63.4297H17.9922L20.4531 58.293L21.6445 58.1172L21.1758 65.4219L21.0391 65.5586C17.7969 65.5195 14.6393 65.5 11.5664 65.5H6.39062C4.71094 65.5 2.97917 65.5195 1.19531 65.5586L1.09766 64.582L3.71484 63.8594C4.04036 63.7682 4.21615 63.5664 4.24219 63.2539C4.25521 62.7331 4.26172 62.1536 4.26172 61.5156C4.27474 60.8646 4.28125 60.1484 4.28125 59.3672V43.8008C4.28125 43.1497 4.27474 42.5573 4.26172 42.0234C4.26172 41.4896 4.25521 41.0013 4.24219 40.5586C4.22917 40.2201 4.07292 40.0052 3.77344 39.9141L1.15625 39.1523L1.09766 38.1562C2.92057 38.2083 4.65234 38.2344 6.29297 38.2344ZM48.1484 40.0117C47.3151 39.6862 46.4102 39.5234 45.4336 39.5234C44.0534 39.5234 42.8815 39.9271 41.918 40.7344C40.9674 41.5417 40.4922 42.5833 40.4922 43.8594C40.4922 44.6276 40.6484 45.2852 40.9609 45.832C41.2734 46.3789 41.6901 46.8672 42.2109 47.2969C42.7318 47.7266 43.3242 48.1107 43.9883 48.4492C44.6654 48.7878 45.362 49.1263 46.0781 49.4648C46.8724 49.8424 47.6732 50.2591 48.4805 50.7148C49.2878 51.1576 50.0104 51.6914 50.6484 52.3164C51.2865 52.9284 51.8008 53.6641 52.1914 54.5234C52.5951 55.3828 52.7969 56.4245 52.7969 57.6484C52.7969 60.2917 51.8008 62.3685 49.8086 63.8789C47.8164 65.3893 45.1862 66.1445 41.918 66.1445C39.5612 66.1445 37.237 65.7734 34.9453 65.0312L34.8281 64.8555L35.8633 57.8242L37.0742 57.6289L38.5391 63.6055C39.4766 64.0352 40.5182 64.25 41.6641 64.25C43.3177 64.25 44.6458 63.8333 45.6484 63C46.6641 62.1536 47.1719 61.0273 47.1719 59.6211C47.1719 58.8268 47.0156 58.1562 46.7031 57.6094C46.3906 57.0495 45.9674 56.5547 45.4336 56.125C44.8997 55.6823 44.2943 55.2917 43.6172 54.9531C42.9401 54.6146 42.237 54.276 41.5078 53.9375C40.7135 53.5469 39.9193 53.1367 39.125 52.707C38.3307 52.2773 37.6211 51.7565 36.9961 51.1445C36.3711 50.5326 35.8633 49.8034 35.4727 48.957C35.082 48.0977 34.8867 47.0625 34.8867 45.8516C34.8867 43.3646 35.8372 41.3854 37.7383 39.9141C39.6393 38.4427 42.1068 37.707 45.1406 37.707C47.0677 37.707 49.2617 38.0065 51.7227 38.6055L51.8398 38.7812L50.6484 45.0703L49.5742 45.2461L48.1484 40.0117ZM64.9062 43.7227V59.3672C64.9062 60.1484 64.9062 60.8581 64.9062 61.4961C64.9193 62.1341 64.9323 62.707 64.9453 63.2148C64.9583 63.5664 65.1276 63.7943 65.4531 63.8984L67.7188 64.582L67.7773 65.5586C66.1628 65.5195 64.2552 65.5 62.0547 65.5C59.776 65.5 57.7448 65.5195 55.9609 65.5586L55.8633 64.582L58.4805 63.8594C58.819 63.7552 58.9948 63.5534 59.0078 63.2539C59.0208 62.7331 59.0273 62.1536 59.0273 61.5156C59.0404 60.8646 59.0469 60.1484 59.0469 59.3672V43.8008C59.0469 43.1497 59.0404 42.5573 59.0273 42.0234C59.0273 41.4896 59.0208 41.0013 59.0078 40.5586C58.9948 40.2201 58.8385 40.0052 58.5391 39.9141L55.9219 39.1523L55.8633 38.1562C57.6732 38.2083 59.6784 38.2344 61.8789 38.2344C64.1315 38.2344 66.0586 38.2083 67.6602 38.1562L67.7773 39.1523L65.4531 39.8164C65.1406 39.9076 64.9714 40.1094 64.9453 40.4219C64.9323 40.9036 64.9193 41.418 64.9062 41.9648C64.9062 42.5117 64.9062 43.0977 64.9062 43.7227ZM65.3555 51.8477L73.3633 43.0391C74.0013 42.349 74.5026 41.7695 74.8672 41.3008C75.2318 40.819 75.4141 40.4349 75.4141 40.1484C75.4141 39.901 75.2383 39.7253 74.8867 39.6211L73.1875 39.1914L73.1289 38.1562C74.5091 38.2083 76.0195 38.2344 77.6602 38.2344C79.2747 38.2344 80.8112 38.2083 82.2695 38.1562L82.3672 39.1523L80.1602 39.7578C79.5221 39.9531 78.9753 40.2526 78.5195 40.6562C78.0638 41.0599 77.582 41.5352 77.0742 42.082L70.375 49.5625L78.9688 62.1992C79.3854 62.7852 79.7565 63.2018 80.082 63.4492C80.4076 63.6836 80.7982 63.8659 81.2539 63.9961L83.1484 64.582L83.207 65.5586C81.7617 65.5195 80.2708 65.5 78.7344 65.5C77.3021 65.5 75.7591 65.513 74.1055 65.5391C73.7148 64.6797 72.6536 62.9349 70.9219 60.3047L65.3555 51.8477ZM94.1641 59.3672C94.1641 60.1484 94.1641 60.8581 94.1641 61.4961C94.1771 62.1341 94.1901 62.707 94.2031 63.2148C94.2161 63.5534 94.4375 63.7812 94.8672 63.8984L97.2695 64.582L97.3281 65.5586C95.5182 65.5195 93.513 65.5 91.3125 65.5C89.0339 65.5 87.0026 65.5195 85.2188 65.5586L85.1211 64.582L87.7383 63.8594C88.0638 63.7682 88.2396 63.5664 88.2656 63.2539C88.2786 62.7331 88.2852 62.1536 88.2852 61.5156C88.2982 60.8646 88.3047 60.1484 88.3047 59.3672V43.8008C88.3047 43.1497 88.2982 42.5573 88.2852 42.0234C88.2852 41.4896 88.2786 41.0013 88.2656 40.5586C88.2526 40.2201 88.0964 40.0052 87.7969 39.9141L85.1797 39.1523L85.1211 38.1562C86.931 38.2083 88.9362 38.2344 91.1367 38.2344C93.4023 38.2344 95.4336 38.2083 97.2305 38.1562L97.3281 39.1523L94.7109 39.875C94.3984 39.9531 94.2292 40.1484 94.2031 40.4609C94.1901 40.9297 94.1771 41.4375 94.1641 41.9844C94.1641 42.5182 94.1641 43.0977 94.1641 43.7227V59.3672ZM106.039 63.1758C106.052 63.5534 106.215 63.7812 106.527 63.8594L109.027 64.543L109.086 65.5586C107.328 65.5195 105.883 65.5 104.75 65.5C103.63 65.5 102.165 65.5195 100.355 65.5586L100.258 64.582L102.875 63.8594C103.214 63.7552 103.389 63.5534 103.402 63.2539C103.428 62.1992 103.441 60.9036 103.441 59.3672V43.8008C103.441 42.4987 103.428 41.418 103.402 40.5586C103.389 40.2201 103.233 40.0052 102.934 39.9141L100.316 39.1523L100.258 38.1562C102.081 38.2083 103.48 38.2344 104.457 38.2344C105.733 38.2344 106.944 38.2083 108.09 38.1562L121.078 54.4258C121.599 55.0768 122.133 55.7669 122.68 56.4961C122.654 55.5977 122.641 54.7318 122.641 53.8984V43.7227C122.641 42.4596 122.628 41.3724 122.602 40.4609C122.589 40.1615 122.419 39.9661 122.094 39.875L119.594 39.1914L119.535 38.1562C121.332 38.2083 122.79 38.2344 123.91 38.2344C125.056 38.2344 126.508 38.2083 128.266 38.1562L128.363 39.1523L125.707 39.9141C125.408 40.0052 125.251 40.2201 125.238 40.5586C125.199 41.418 125.18 42.4987 125.18 43.8008V65.5L122.934 65.7148L107.543 46.4375C107.087 45.8516 106.56 45.1549 105.961 44.3477C105.987 45.3112 106 46.1966 106 47.0039V59.3672C106 60.9036 106.013 62.1732 106.039 63.1758ZM152.68 45.5391L151.605 45.7148L150.121 40.1094C149.092 39.7839 147.979 39.6211 146.781 39.6211C143.904 39.6211 141.677 40.7018 140.102 42.8633C138.526 45.0117 137.738 47.8307 137.738 51.3203C137.738 55.0443 138.663 58.013 140.512 60.2266C142.374 62.4401 144.952 63.5469 148.246 63.5469C150.082 63.5469 152.016 63.1758 154.047 62.4336L154.301 63.5469C151.697 65.3177 148.754 66.2031 145.473 66.2031C141.215 66.2031 137.771 64.9206 135.141 62.3555C132.523 59.7904 131.215 56.4115 131.215 52.2188C131.215 47.7526 132.654 44.2174 135.531 41.6133C138.409 39.0091 142.165 37.707 146.801 37.707C149.092 37.707 151.436 37.974 153.832 38.5078L153.949 38.7031L152.68 45.5391ZM163.109 56.8281L161.723 60.4805C161.449 61.1966 161.234 61.776 161.078 62.2188C160.935 62.6484 160.863 62.9805 160.863 63.2148C160.863 63.4362 160.922 63.6055 161.039 63.7227C161.156 63.8398 161.339 63.931 161.586 63.9961L163.461 64.543L163.52 65.5586C161.632 65.5195 160.095 65.5 158.91 65.5C157.673 65.5 156.26 65.5195 154.672 65.5586L154.574 64.582L156.664 63.957C157.159 63.8138 157.523 63.5794 157.758 63.2539C157.992 62.9154 158.253 62.4076 158.539 61.7305L168.266 38.0391L170.375 37.7266L178.793 61.4766C179.118 62.388 179.411 63.0065 179.672 63.332C179.945 63.6445 180.329 63.8724 180.824 64.0156L182.738 64.582L182.797 65.5586C181.039 65.5195 179.268 65.5 177.484 65.5C175.128 65.5 172.829 65.5195 170.59 65.5586L170.492 64.582L172.426 64.0156C172.686 63.9375 172.875 63.8398 172.992 63.7227C173.109 63.6055 173.168 63.4297 173.168 63.1953C173.168 62.9349 173.103 62.5964 172.973 62.1797C172.842 61.75 172.654 61.1901 172.406 60.5L171.117 56.8281H163.109ZM167.328 45.6172C167.094 46.2943 166.84 46.9974 166.566 47.7266L163.891 54.7969H170.414L168.012 47.7461C167.764 47.0039 167.536 46.2943 167.328 45.6172ZM193.168 59.3672C193.168 60.1484 193.168 60.8516 193.168 61.4766C193.181 62.0885 193.194 62.6484 193.207 63.1562C193.22 63.5729 193.37 63.8268 193.656 63.918L195.688 64.582L195.746 65.5586C194.301 65.5195 192.51 65.5 190.375 65.5C188.096 65.5 186.065 65.5195 184.281 65.5586L184.184 64.582L186.801 63.8594C187.126 63.7682 187.302 63.5664 187.328 63.2539C187.341 62.7331 187.348 62.1536 187.348 61.5156C187.361 60.8646 187.367 60.1484 187.367 59.3672V43.8008C187.367 43.1497 187.361 42.5573 187.348 42.0234C187.348 41.4896 187.341 41.0013 187.328 40.5586C187.315 40.2201 187.159 40.0052 186.859 39.9141L184.242 39.1523L184.184 38.1562C186.007 38.2083 187.875 38.2344 189.789 38.2344C190.193 38.2344 190.694 38.2279 191.293 38.2148C191.892 38.1888 192.621 38.1628 193.48 38.1367C194.262 38.1107 194.913 38.0911 195.434 38.0781C195.967 38.0651 196.384 38.0586 196.684 38.0586C200.03 38.0586 202.536 38.6185 204.203 39.7383C205.883 40.8581 206.723 42.4922 206.723 44.6406C206.723 46.5807 206.208 48.1497 205.18 49.3477C204.164 50.5326 202.667 51.444 200.688 52.082C201.781 53.6966 202.621 55.0052 203.207 56.0078C203.806 57.0104 204.405 58 205.004 58.9766C205.603 59.9401 206.143 60.793 206.625 61.5352C207.12 62.2773 207.582 62.8633 208.012 63.293C208.246 63.4883 208.467 63.6576 208.676 63.8008C208.897 63.944 209.125 64.0677 209.359 64.1719C209.594 64.276 209.841 64.3672 210.102 64.4453C210.375 64.5104 210.674 64.5755 211 64.6406L211.078 65.6367C209.802 65.819 208.344 65.9102 206.703 65.9102C205.401 65.9102 204.49 65.8255 203.969 65.6562C203.448 65.487 202.986 65.2461 202.582 64.9336C201.983 64.4648 201.43 63.8529 200.922 63.0977C200.427 62.3424 199.9 61.4896 199.34 60.5391C198.78 59.5885 198.201 58.5794 197.602 57.5117C197.016 56.444 196.397 55.3893 195.746 54.3477C195.551 54.0482 195.388 53.8008 195.258 53.6055C195.141 53.4102 195.017 53.2669 194.887 53.1758C194.77 53.0716 194.639 53 194.496 52.9609C194.366 52.9089 194.197 52.8763 193.988 52.8633L193.168 52.8438V59.3672ZM193.168 51.1445C193.858 51.1836 194.483 51.2031 195.043 51.2031C196.892 51.2031 198.246 50.7409 199.105 49.8164C199.965 48.8789 200.395 47.4206 200.395 45.4414C200.395 43.5273 199.978 42.1341 199.145 41.2617C198.324 40.3763 197.042 39.9336 195.297 39.9336C194.997 39.9336 194.672 39.9466 194.32 39.9727C193.982 39.9987 193.598 40.0378 193.168 40.0898V51.1445ZM217.582 38.2344H222.523C225.688 38.2344 228.969 38.2083 232.367 38.1562L232.504 38.3125L231.293 44.8164L230.238 44.9727L228.988 40.2266H221.43V50.5977H222.484C223.617 50.5977 224.835 50.5846 226.137 50.5586C226.475 50.5456 226.697 50.3698 226.801 50.0312L227.504 47.3555L228.793 47.2969C228.754 49.1849 228.734 50.5977 228.734 51.5352C228.734 52.4466 228.754 53.8398 228.793 55.7148L227.504 55.8125L226.781 53.0586C226.677 52.707 226.475 52.5247 226.176 52.5117C224.848 52.4857 223.611 52.4727 222.465 52.4727H221.43V59.1719C221.43 60.6042 221.443 62.0234 221.469 63.4297H229.281L231.742 58.293L232.934 58.1172L232.465 65.4219L232.328 65.5586C229.086 65.5195 225.928 65.5 222.855 65.5H217.68C216 65.5 214.268 65.5195 212.484 65.5586L212.387 64.582L215.004 63.8594C215.329 63.7682 215.505 63.5664 215.531 63.2539C215.544 62.7331 215.551 62.1536 215.551 61.5156C215.564 60.8646 215.57 60.1484 215.57 59.3672V43.8008C215.57 43.1497 215.564 42.5573 215.551 42.0234C215.551 41.4896 215.544 41.0013 215.531 40.5586C215.518 40.2201 215.362 40.0052 215.062 39.9141L212.445 39.1523L212.387 38.1562C214.21 38.2083 215.941 38.2344 217.582 38.2344Z" fill="#381802"/>
<circle cx="330" cy="55" r="15" fill="#381802"/>
<path d="M432.105 38.2344H437.047C440.211 38.2344 443.492 38.2083 446.891 38.1562L447.027 38.3125L445.816 44.8164L444.762 44.9727L443.512 40.2266H435.953V50.5977H437.008C438.141 50.5977 439.358 50.5846 440.66 50.5586C440.999 50.5456 441.22 50.3698 441.324 50.0312L442.027 47.3555L443.316 47.2969C443.277 49.1849 443.258 50.5977 443.258 51.5352C443.258 52.4466 443.277 53.8398 443.316 55.7148L442.027 55.8125L441.305 53.0586C441.201 52.707 440.999 52.5247 440.699 52.5117C439.371 52.4857 438.134 52.4727 436.988 52.4727H435.953V59.1719C435.953 60.6042 435.966 62.0234 435.992 63.4297H443.805L446.266 58.293L447.457 58.1172L446.988 65.4219L446.852 65.5586C443.609 65.5195 440.452 65.5 437.379 65.5H432.203C430.523 65.5 428.792 65.5195 427.008 65.5586L426.91 64.582L429.527 63.8594C429.853 63.7682 430.029 63.5664 430.055 63.2539C430.068 62.7331 430.074 62.1536 430.074 61.5156C430.087 60.8646 430.094 60.1484 430.094 59.3672V43.8008C430.094 43.1497 430.087 42.5573 430.074 42.0234C430.074 41.4896 430.068 41.0013 430.055 40.5586C430.042 40.2201 429.885 40.0052 429.586 39.9141L426.969 39.1523L426.91 38.1562C428.733 38.2083 430.465 38.2344 432.105 38.2344ZM477.359 65.5586C475.549 65.5195 473.538 65.5 471.324 65.5C469.254 65.5 466.969 65.5195 464.469 65.5586L464.332 64.582L466.07 64.1133C466.344 64.0352 466.539 63.9375 466.656 63.8203C466.773 63.6901 466.832 63.5339 466.832 63.3516C466.832 63.0391 466.715 62.6745 466.48 62.2578C466.246 61.8281 465.992 61.3919 465.719 60.9492L461.48 54.25L457.633 60.2461C457.229 60.8581 456.871 61.431 456.559 61.9648C456.246 62.4987 456.09 62.9479 456.09 63.3125C456.09 63.4948 456.135 63.651 456.227 63.7812C456.318 63.8984 456.5 63.9961 456.773 64.0742L458.453 64.543L458.512 65.5586C457.053 65.5195 455.484 65.5 453.805 65.5C452.294 65.5 450.764 65.5195 449.215 65.5586L449.117 64.582L451.363 63.957C451.845 63.8008 452.262 63.5729 452.613 63.2734C452.965 62.9609 453.342 62.4922 453.746 61.8672L460.211 52.2578L453.531 41.6523C453.102 40.9753 452.73 40.5065 452.418 40.2461C452.118 39.9727 451.76 39.7839 451.344 39.6797L449.312 39.1523L449.234 38.1562C451.07 38.2083 453.186 38.2344 455.582 38.2344C457.652 38.2344 459.84 38.2083 462.145 38.1562L462.262 39.1523L460.543 39.6211C460.27 39.6862 460.074 39.7839 459.957 39.9141C459.84 40.0312 459.781 40.1875 459.781 40.3828C459.781 40.6953 459.898 41.0664 460.133 41.4961C460.38 41.9128 460.641 42.3424 460.914 42.7852L464.254 48.0977L467.262 43.4688C467.678 42.8698 468.043 42.2904 468.355 41.7305C468.668 41.1706 468.824 40.7344 468.824 40.4219C468.824 40.0703 468.564 39.8164 468.043 39.6602L466.324 39.1914L466.266 38.1562C467.711 38.2083 469.267 38.2344 470.934 38.2344C472.548 38.2344 474.072 38.2083 475.504 38.1562L475.621 39.1523L473.434 39.7578C472.926 39.9141 472.516 40.1484 472.203 40.4609C471.904 40.7734 471.493 41.3138 470.973 42.082L465.504 50.0898L472.926 61.8281C473.46 62.6745 473.863 63.2279 474.137 63.4883C474.423 63.7357 474.807 63.918 475.289 64.0352L477.301 64.582L477.359 65.5586ZM498.375 45.5391L497.301 45.7148L495.816 40.1094C494.788 39.7839 493.674 39.6211 492.477 39.6211C489.599 39.6211 487.372 40.7018 485.797 42.8633C484.221 45.0117 483.434 47.8307 483.434 51.3203C483.434 55.0443 484.358 58.013 486.207 60.2266C488.069 62.4401 490.647 63.5469 493.941 63.5469C495.777 63.5469 497.711 63.1758 499.742 62.4336L499.996 63.5469C497.392 65.3177 494.449 66.2031 491.168 66.2031C486.91 66.2031 483.466 64.9206 480.836 62.3555C478.219 59.7904 476.91 56.4115 476.91 52.2188C476.91 47.7526 478.349 44.2174 481.227 41.6133C484.104 39.0091 487.861 37.707 492.496 37.707C494.788 37.707 497.132 37.974 499.527 38.5078L499.645 38.7031L498.375 45.5391ZM512.125 43.7227V59.1719C512.125 60.6042 512.138 62.0234 512.164 63.4297H519.801L522.477 57.8828L523.668 57.707L523.18 65.4219L523.043 65.5586C519.827 65.5195 516.682 65.5 513.609 65.5H508.766C506.826 65.5 505.029 65.5195 503.375 65.5586L503.277 64.582L505.699 63.8594C506.025 63.7682 506.201 63.5664 506.227 63.2539C506.24 62.7331 506.246 62.1536 506.246 61.5156C506.259 60.8646 506.266 60.1484 506.266 59.3672V43.8008C506.266 43.1497 506.259 42.5573 506.246 42.0234C506.246 41.4896 506.24 41.0013 506.227 40.5586C506.214 40.2201 506.057 40.0052 505.758 39.9141L503.336 39.1523L503.277 38.1562C504.957 38.2083 506.897 38.2344 509.098 38.2344C511.363 38.2344 513.329 38.2083 514.996 38.1562L515.094 39.1523L512.672 39.875C512.359 39.9531 512.19 40.1484 512.164 40.4609C512.151 40.9297 512.138 41.6003 512.125 42.4727C512.125 43.332 512.125 43.7487 512.125 43.7227ZM524.469 38.1562C526.279 38.2083 528.284 38.2344 530.484 38.2344C532.75 38.2344 534.755 38.2083 536.5 38.1562L536.598 39.1523L534.059 39.875C533.746 39.9531 533.577 40.1484 533.551 40.4609C533.538 40.9297 533.525 41.4375 533.512 41.9844C533.512 42.5182 533.512 43.0977 533.512 43.7227V54.4844C533.512 58.0391 534.046 60.5 535.113 61.8672C536.181 63.2214 537.913 63.8984 540.309 63.8984C542.665 63.8984 544.43 63.1823 545.602 61.75C546.786 60.3047 547.379 57.9674 547.379 54.7383V43.7227C547.379 43.0977 547.372 42.5182 547.359 41.9844C547.346 41.4375 547.333 40.9297 547.32 40.4609C547.307 40.1615 547.138 39.9661 546.812 39.875L544.391 39.1914L544.332 38.1562C546.064 38.2083 547.561 38.2344 548.824 38.2344C549.996 38.2344 551.467 38.2083 553.238 38.1562L553.336 39.1523L550.68 39.9141C550.367 40.0052 550.204 40.2201 550.191 40.5586C550.178 41.0013 550.165 41.4896 550.152 42.0234C550.152 42.5573 550.152 43.1497 550.152 43.8008V53.7227C550.152 58.2018 549.228 61.418 547.379 63.3711C545.543 65.3112 542.867 66.2812 539.352 66.2812C535.354 66.2812 532.405 65.3568 530.504 63.5078C528.603 61.6458 527.652 58.6706 527.652 54.582V43.8008C527.652 43.1497 527.646 42.5573 527.633 42.0234C527.633 41.4896 527.626 41.0013 527.613 40.5586C527.6 40.2201 527.444 40.0052 527.145 39.9141L524.527 39.1523L524.469 38.1562ZM569.234 40.0117C568.401 39.6862 567.496 39.5234 566.52 39.5234C565.139 39.5234 563.967 39.9271 563.004 40.7344C562.053 41.5417 561.578 42.5833 561.578 43.8594C561.578 44.6276 561.734 45.2852 562.047 45.832C562.359 46.3789 562.776 46.8672 563.297 47.2969C563.818 47.7266 564.41 48.1107 565.074 48.4492C565.751 48.7878 566.448 49.1263 567.164 49.4648C567.958 49.8424 568.759 50.2591 569.566 50.7148C570.374 51.1576 571.096 51.6914 571.734 52.3164C572.372 52.9284 572.887 53.6641 573.277 54.5234C573.681 55.3828 573.883 56.4245 573.883 57.6484C573.883 60.2917 572.887 62.3685 570.895 63.8789C568.902 65.3893 566.272 66.1445 563.004 66.1445C560.647 66.1445 558.323 65.7734 556.031 65.0312L555.914 64.8555L556.949 57.8242L558.16 57.6289L559.625 63.6055C560.562 64.0352 561.604 64.25 562.75 64.25C564.404 64.25 565.732 63.8333 566.734 63C567.75 62.1536 568.258 61.0273 568.258 59.6211C568.258 58.8268 568.102 58.1562 567.789 57.6094C567.477 57.0495 567.053 56.5547 566.52 56.125C565.986 55.6823 565.38 55.2917 564.703 54.9531C564.026 54.6146 563.323 54.276 562.594 53.9375C561.799 53.5469 561.005 53.1367 560.211 52.707C559.417 52.2773 558.707 51.7565 558.082 51.1445C557.457 50.5326 556.949 49.8034 556.559 48.957C556.168 48.0977 555.973 47.0625 555.973 45.8516C555.973 43.3646 556.923 41.3854 558.824 39.9141C560.725 38.4427 563.193 37.707 566.227 37.707C568.154 37.707 570.348 38.0065 572.809 38.6055L572.926 38.7812L571.734 45.0703L570.66 45.2461L569.234 40.0117ZM585.992 59.3672C585.992 60.1484 585.992 60.8581 585.992 61.4961C586.005 62.1341 586.018 62.707 586.031 63.2148C586.044 63.5534 586.266 63.7812 586.695 63.8984L589.098 64.582L589.156 65.5586C587.346 65.5195 585.341 65.5 583.141 65.5C580.862 65.5 578.831 65.5195 577.047 65.5586L576.949 64.582L579.566 63.8594C579.892 63.7682 580.068 63.5664 580.094 63.2539C580.107 62.7331 580.113 62.1536 580.113 61.5156C580.126 60.8646 580.133 60.1484 580.133 59.3672V43.8008C580.133 43.1497 580.126 42.5573 580.113 42.0234C580.113 41.4896 580.107 41.0013 580.094 40.5586C580.081 40.2201 579.924 40.0052 579.625 39.9141L577.008 39.1523L576.949 38.1562C578.759 38.2083 580.764 38.2344 582.965 38.2344C585.23 38.2344 587.262 38.2083 589.059 38.1562L589.156 39.1523L586.539 39.875C586.227 39.9531 586.057 40.1484 586.031 40.4609C586.018 40.9297 586.005 41.4375 585.992 41.9844C585.992 42.5182 585.992 43.0977 585.992 43.7227V59.3672ZM605.25 55.7734C605.497 56.5156 605.725 57.2318 605.934 57.9219C606.168 57.2318 606.415 56.5221 606.676 55.793L611.383 43.2539C611.643 42.5247 611.845 41.9453 611.988 41.5156C612.145 41.0859 612.223 40.7474 612.223 40.5C612.223 40.2786 612.158 40.1094 612.027 39.9922C611.91 39.875 611.728 39.7839 611.48 39.7188L609.625 39.1914L609.566 38.1562C611.454 38.2083 612.991 38.2344 614.176 38.2344C615.413 38.2344 616.819 38.2083 618.395 38.1562L618.512 39.1523L616.402 39.7578C615.921 39.9141 615.562 40.1549 615.328 40.4805C615.094 40.806 614.833 41.3138 614.547 42.0039L604.957 65.5977L602.906 65.793L594.527 42.2383C594.202 41.3398 593.902 40.7344 593.629 40.4219C593.368 40.0964 592.991 39.8555 592.496 39.6992L590.602 39.1523L590.523 38.1562C592.294 38.2083 594.065 38.2344 595.836 38.2344C598.193 38.2344 600.491 38.2083 602.73 38.1562L602.828 39.1523L600.914 39.6992C600.654 39.7773 600.465 39.875 600.348 39.9922C600.23 40.1094 600.172 40.2852 600.172 40.5195C600.172 40.7799 600.237 41.125 600.367 41.5547C600.497 41.9714 600.686 42.5312 600.934 43.2344L605.25 55.7734ZM624.293 38.2344H629.234C632.398 38.2344 635.68 38.2083 639.078 38.1562L639.215 38.3125L638.004 44.8164L636.949 44.9727L635.699 40.2266H628.141V50.5977H629.195C630.328 50.5977 631.546 50.5846 632.848 50.5586C633.186 50.5456 633.408 50.3698 633.512 50.0312L634.215 47.3555L635.504 47.2969C635.465 49.1849 635.445 50.5977 635.445 51.5352C635.445 52.4466 635.465 53.8398 635.504 55.7148L634.215 55.8125L633.492 53.0586C633.388 52.707 633.186 52.5247 632.887 52.5117C631.559 52.4857 630.322 52.4727 629.176 52.4727H628.141V59.1719C628.141 60.6042 628.154 62.0234 628.18 63.4297H635.992L638.453 58.293L639.645 58.1172L639.176 65.4219L639.039 65.5586C635.797 65.5195 632.639 65.5 629.566 65.5H624.391C622.711 65.5 620.979 65.5195 619.195 65.5586L619.098 64.582L621.715 63.8594C622.04 63.7682 622.216 63.5664 622.242 63.2539C622.255 62.7331 622.262 62.1536 622.262 61.5156C622.275 60.8646 622.281 60.1484 622.281 59.3672V43.8008C622.281 43.1497 622.275 42.5573 622.262 42.0234C622.262 41.4896 622.255 41.0013 622.242 40.5586C622.229 40.2201 622.073 40.0052 621.773 39.9141L619.156 39.1523L619.098 38.1562C620.921 38.2083 622.652 38.2344 624.293 38.2344ZM666.148 40.0117C665.315 39.6862 664.41 39.5234 663.434 39.5234C662.053 39.5234 660.882 39.9271 659.918 40.7344C658.967 41.5417 658.492 42.5833 658.492 43.8594C658.492 44.6276 658.648 45.2852 658.961 45.832C659.273 46.3789 659.69 46.8672 660.211 47.2969C660.732 47.7266 661.324 48.1107 661.988 48.4492C662.665 48.7878 663.362 49.1263 664.078 49.4648C664.872 49.8424 665.673 50.2591 666.48 50.7148C667.288 51.1576 668.01 51.6914 668.648 52.3164C669.286 52.9284 669.801 53.6641 670.191 54.5234C670.595 55.3828 670.797 56.4245 670.797 57.6484C670.797 60.2917 669.801 62.3685 667.809 63.8789C665.816 65.3893 663.186 66.1445 659.918 66.1445C657.561 66.1445 655.237 65.7734 652.945 65.0312L652.828 64.8555L653.863 57.8242L655.074 57.6289L656.539 63.6055C657.477 64.0352 658.518 64.25 659.664 64.25C661.318 64.25 662.646 63.8333 663.648 63C664.664 62.1536 665.172 61.0273 665.172 59.6211C665.172 58.8268 665.016 58.1562 664.703 57.6094C664.391 57.0495 663.967 56.5547 663.434 56.125C662.9 55.6823 662.294 55.2917 661.617 54.9531C660.94 54.6146 660.237 54.276 659.508 53.9375C658.714 53.5469 657.919 53.1367 657.125 52.707C656.331 52.2773 655.621 51.7565 654.996 51.1445C654.371 50.5326 653.863 49.8034 653.473 48.957C653.082 48.0977 652.887 47.0625 652.887 45.8516C652.887 43.3646 653.837 41.3854 655.738 39.9141C657.639 38.4427 660.107 37.707 663.141 37.707C665.068 37.707 667.262 38.0065 669.723 38.6055L669.84 38.7812L668.648 45.0703L667.574 45.2461L666.148 40.0117ZM682.906 43.7227V59.3672C682.906 60.1484 682.906 60.8581 682.906 61.4961C682.919 62.1341 682.932 62.707 682.945 63.2148C682.958 63.5664 683.128 63.7943 683.453 63.8984L685.719 64.582L685.777 65.5586C684.163 65.5195 682.255 65.5 680.055 65.5C677.776 65.5 675.745 65.5195 673.961 65.5586L673.863 64.582L676.48 63.8594C676.819 63.7552 676.995 63.5534 677.008 63.2539C677.021 62.7331 677.027 62.1536 677.027 61.5156C677.04 60.8646 677.047 60.1484 677.047 59.3672V43.8008C677.047 43.1497 677.04 42.5573 677.027 42.0234C677.027 41.4896 677.021 41.0013 677.008 40.5586C676.995 40.2201 676.839 40.0052 676.539 39.9141L673.922 39.1523L673.863 38.1562C675.673 38.2083 677.678 38.2344 679.879 38.2344C682.132 38.2344 684.059 38.2083 685.66 38.1562L685.777 39.1523L683.453 39.8164C683.141 39.9076 682.971 40.1094 682.945 40.4219C682.932 40.9036 682.919 41.418 682.906 41.9648C682.906 42.5117 682.906 43.0977 682.906 43.7227ZM683.355 51.8477L691.363 43.0391C692.001 42.349 692.503 41.7695 692.867 41.3008C693.232 40.819 693.414 40.4349 693.414 40.1484C693.414 39.901 693.238 39.7253 692.887 39.6211L691.188 39.1914L691.129 38.1562C692.509 38.2083 694.02 38.2344 695.66 38.2344C697.275 38.2344 698.811 38.2083 700.27 38.1562L700.367 39.1523L698.16 39.7578C697.522 39.9531 696.975 40.2526 696.52 40.6562C696.064 41.0599 695.582 41.5352 695.074 42.082L688.375 49.5625L696.969 62.1992C697.385 62.7852 697.757 63.2018 698.082 63.4492C698.408 63.6836 698.798 63.8659 699.254 63.9961L701.148 64.582L701.207 65.5586C699.762 65.5195 698.271 65.5 696.734 65.5C695.302 65.5 693.759 65.513 692.105 65.5391C691.715 64.6797 690.654 62.9349 688.922 60.3047L683.355 51.8477ZM712.164 59.3672C712.164 60.1484 712.164 60.8581 712.164 61.4961C712.177 62.1341 712.19 62.707 712.203 63.2148C712.216 63.5534 712.438 63.7812 712.867 63.8984L715.27 64.582L715.328 65.5586C713.518 65.5195 711.513 65.5 709.312 65.5C707.034 65.5 705.003 65.5195 703.219 65.5586L703.121 64.582L705.738 63.8594C706.064 63.7682 706.24 63.5664 706.266 63.2539C706.279 62.7331 706.285 62.1536 706.285 61.5156C706.298 60.8646 706.305 60.1484 706.305 59.3672V43.8008C706.305 43.1497 706.298 42.5573 706.285 42.0234C706.285 41.4896 706.279 41.0013 706.266 40.5586C706.253 40.2201 706.096 40.0052 705.797 39.9141L703.18 39.1523L703.121 38.1562C704.931 38.2083 706.936 38.2344 709.137 38.2344C711.402 38.2344 713.434 38.2083 715.23 38.1562L715.328 39.1523L712.711 39.875C712.398 39.9531 712.229 40.1484 712.203 40.4609C712.19 40.9297 712.177 41.4375 712.164 41.9844C712.164 42.5182 712.164 43.0977 712.164 43.7227V59.3672ZM724.039 63.1758C724.052 63.5534 724.215 63.7812 724.527 63.8594L727.027 64.543L727.086 65.5586C725.328 65.5195 723.883 65.5 722.75 65.5C721.63 65.5 720.165 65.5195 718.355 65.5586L718.258 64.582L720.875 63.8594C721.214 63.7552 721.389 63.5534 721.402 63.2539C721.428 62.1992 721.441 60.9036 721.441 59.3672V43.8008C721.441 42.4987 721.428 41.418 721.402 40.5586C721.389 40.2201 721.233 40.0052 720.934 39.9141L718.316 39.1523L718.258 38.1562C720.081 38.2083 721.48 38.2344 722.457 38.2344C723.733 38.2344 724.944 38.2083 726.09 38.1562L739.078 54.4258C739.599 55.0768 740.133 55.7669 740.68 56.4961C740.654 55.5977 740.641 54.7318 740.641 53.8984V43.7227C740.641 42.4596 740.628 41.3724 740.602 40.4609C740.589 40.1615 740.419 39.9661 740.094 39.875L737.594 39.1914L737.535 38.1562C739.332 38.2083 740.79 38.2344 741.91 38.2344C743.056 38.2344 744.508 38.2083 746.266 38.1562L746.363 39.1523L743.707 39.9141C743.408 40.0052 743.251 40.2201 743.238 40.5586C743.199 41.418 743.18 42.4987 743.18 43.8008V65.5L740.934 65.7148L725.543 46.4375C725.087 45.8516 724.56 45.1549 723.961 44.3477C723.987 45.3112 724 46.1966 724 47.0039V59.3672C724 60.9036 724.013 62.1732 724.039 63.1758ZM770.68 45.5391L769.605 45.7148L768.121 40.1094C767.092 39.7839 765.979 39.6211 764.781 39.6211C761.904 39.6211 759.677 40.7018 758.102 42.8633C756.526 45.0117 755.738 47.8307 755.738 51.3203C755.738 55.0443 756.663 58.013 758.512 60.2266C760.374 62.4401 762.952 63.5469 766.246 63.5469C768.082 63.5469 770.016 63.1758 772.047 62.4336L772.301 63.5469C769.697 65.3177 766.754 66.2031 763.473 66.2031C759.215 66.2031 755.771 64.9206 753.141 62.3555C750.523 59.7904 749.215 56.4115 749.215 52.2188C749.215 47.7526 750.654 44.2174 753.531 41.6133C756.409 39.0091 760.165 37.707 764.801 37.707C767.092 37.707 769.436 37.974 771.832 38.5078L771.949 38.7031L770.68 45.5391ZM781.109 56.8281L779.723 60.4805C779.449 61.1966 779.234 61.776 779.078 62.2188C778.935 62.6484 778.863 62.9805 778.863 63.2148C778.863 63.4362 778.922 63.6055 779.039 63.7227C779.156 63.8398 779.339 63.931 779.586 63.9961L781.461 64.543L781.52 65.5586C779.632 65.5195 778.095 65.5 776.91 65.5C775.673 65.5 774.26 65.5195 772.672 65.5586L772.574 64.582L774.664 63.957C775.159 63.8138 775.523 63.5794 775.758 63.2539C775.992 62.9154 776.253 62.4076 776.539 61.7305L786.266 38.0391L788.375 37.7266L796.793 61.4766C797.118 62.388 797.411 63.0065 797.672 63.332C797.945 63.6445 798.329 63.8724 798.824 64.0156L800.738 64.582L800.797 65.5586C799.039 65.5195 797.268 65.5 795.484 65.5C793.128 65.5 790.829 65.5195 788.59 65.5586L788.492 64.582L790.426 64.0156C790.686 63.9375 790.875 63.8398 790.992 63.7227C791.109 63.6055 791.168 63.4297 791.168 63.1953C791.168 62.9349 791.103 62.5964 790.973 62.1797C790.842 61.75 790.654 61.1901 790.406 60.5L789.117 56.8281H781.109ZM785.328 45.6172C785.094 46.2943 784.84 46.9974 784.566 47.7266L781.891 54.7969H788.414L786.012 47.7461C785.764 47.0039 785.536 46.2943 785.328 45.6172ZM811.168 59.3672C811.168 60.1484 811.168 60.8516 811.168 61.4766C811.181 62.0885 811.194 62.6484 811.207 63.1562C811.22 63.5729 811.37 63.8268 811.656 63.918L813.688 64.582L813.746 65.5586C812.301 65.5195 810.51 65.5 808.375 65.5C806.096 65.5 804.065 65.5195 802.281 65.5586L802.184 64.582L804.801 63.8594C805.126 63.7682 805.302 63.5664 805.328 63.2539C805.341 62.7331 805.348 62.1536 805.348 61.5156C805.361 60.8646 805.367 60.1484 805.367 59.3672V43.8008C805.367 43.1497 805.361 42.5573 805.348 42.0234C805.348 41.4896 805.341 41.0013 805.328 40.5586C805.315 40.2201 805.159 40.0052 804.859 39.9141L802.242 39.1523L802.184 38.1562C804.007 38.2083 805.875 38.2344 807.789 38.2344C808.193 38.2344 808.694 38.2279 809.293 38.2148C809.892 38.1888 810.621 38.1628 811.48 38.1367C812.262 38.1107 812.913 38.0911 813.434 38.0781C813.967 38.0651 814.384 38.0586 814.684 38.0586C818.03 38.0586 820.536 38.6185 822.203 39.7383C823.883 40.8581 824.723 42.4922 824.723 44.6406C824.723 46.5807 824.208 48.1497 823.18 49.3477C822.164 50.5326 820.667 51.444 818.688 52.082C819.781 53.6966 820.621 55.0052 821.207 56.0078C821.806 57.0104 822.405 58 823.004 58.9766C823.603 59.9401 824.143 60.793 824.625 61.5352C825.12 62.2773 825.582 62.8633 826.012 63.293C826.246 63.4883 826.467 63.6576 826.676 63.8008C826.897 63.944 827.125 64.0677 827.359 64.1719C827.594 64.276 827.841 64.3672 828.102 64.4453C828.375 64.5104 828.674 64.5755 829 64.6406L829.078 65.6367C827.802 65.819 826.344 65.9102 824.703 65.9102C823.401 65.9102 822.49 65.8255 821.969 65.6562C821.448 65.487 820.986 65.2461 820.582 64.9336C819.983 64.4648 819.43 63.8529 818.922 63.0977C818.427 62.3424 817.9 61.4896 817.34 60.5391C816.78 59.5885 816.201 58.5794 815.602 57.5117C815.016 56.444 814.397 55.3893 813.746 54.3477C813.551 54.0482 813.388 53.8008 813.258 53.6055C813.141 53.4102 813.017 53.2669 812.887 53.1758C812.77 53.0716 812.639 53 812.496 52.9609C812.366 52.9089 812.197 52.8763 811.988 52.8633L811.168 52.8438V59.3672ZM811.168 51.1445C811.858 51.1836 812.483 51.2031 813.043 51.2031C814.892 51.2031 816.246 50.7409 817.105 49.8164C817.965 48.8789 818.395 47.4206 818.395 45.4414C818.395 43.5273 817.978 42.1341 817.145 41.2617C816.324 40.3763 815.042 39.9336 813.297 39.9336C812.997 39.9336 812.672 39.9466 812.32 39.9727C811.982 39.9987 811.598 40.0378 811.168 40.0898V51.1445ZM835.582 38.2344H840.523C843.688 38.2344 846.969 38.2083 850.367 38.1562L850.504 38.3125L849.293 44.8164L848.238 44.9727L846.988 40.2266H839.43V50.5977H840.484C841.617 50.5977 842.835 50.5846 844.137 50.5586C844.475 50.5456 844.697 50.3698 844.801 50.0312L845.504 47.3555L846.793 47.2969C846.754 49.1849 846.734 50.5977 846.734 51.5352C846.734 52.4466 846.754 53.8398 846.793 55.7148L845.504 55.8125L844.781 53.0586C844.677 52.707 844.475 52.5247 844.176 52.5117C842.848 52.4857 841.611 52.4727 840.465 52.4727H839.43V59.1719C839.43 60.6042 839.443 62.0234 839.469 63.4297H847.281L849.742 58.293L850.934 58.1172L850.465 65.4219L850.328 65.5586C847.086 65.5195 843.928 65.5 840.855 65.5H835.68C834 65.5 832.268 65.5195 830.484 65.5586L830.387 64.582L833.004 63.8594C833.329 63.7682 833.505 63.5664 833.531 63.2539C833.544 62.7331 833.551 62.1536 833.551 61.5156C833.564 60.8646 833.57 60.1484 833.57 59.3672V43.8008C833.57 43.1497 833.564 42.5573 833.551 42.0234C833.551 41.4896 833.544 41.0013 833.531 40.5586C833.518 40.2201 833.362 40.0052 833.062 39.9141L830.445 39.1523L830.387 38.1562C832.21 38.2083 833.941 38.2344 835.582 38.2344Z" fill="#381802"/>
<circle cx="948" cy="55" r="15" fill="#381802"/>
<path d="M1050.11 38.2344H1055.05C1058.21 38.2344 1061.49 38.2083 1064.89 38.1562L1065.03 38.3125L1063.82 44.8164L1062.76 44.9727L1061.51 40.2266H1053.95V50.5977H1055.01C1056.14 50.5977 1057.36 50.5846 1058.66 50.5586C1059 50.5456 1059.22 50.3698 1059.32 50.0312L1060.03 47.3555L1061.32 47.2969C1061.28 49.1849 1061.26 50.5977 1061.26 51.5352C1061.26 52.4466 1061.28 53.8398 1061.32 55.7148L1060.03 55.8125L1059.3 53.0586C1059.2 52.707 1059 52.5247 1058.7 52.5117C1057.37 52.4857 1056.13 52.4727 1054.99 52.4727H1053.95V59.1719C1053.95 60.6042 1053.97 62.0234 1053.99 63.4297H1061.8L1064.27 58.293L1065.46 58.1172L1064.99 65.4219L1064.85 65.5586C1061.61 65.5195 1058.45 65.5 1055.38 65.5H1050.2C1048.52 65.5 1046.79 65.5195 1045.01 65.5586L1044.91 64.582L1047.53 63.8594C1047.85 63.7682 1048.03 63.5664 1048.05 63.2539C1048.07 62.7331 1048.07 62.1536 1048.07 61.5156C1048.09 60.8646 1048.09 60.1484 1048.09 59.3672V43.8008C1048.09 43.1497 1048.09 42.5573 1048.07 42.0234C1048.07 41.4896 1048.07 41.0013 1048.05 40.5586C1048.04 40.2201 1047.89 40.0052 1047.59 39.9141L1044.97 39.1523L1044.91 38.1562C1046.73 38.2083 1048.46 38.2344 1050.11 38.2344ZM1095.36 65.5586C1093.55 65.5195 1091.54 65.5 1089.32 65.5C1087.25 65.5 1084.97 65.5195 1082.47 65.5586L1082.33 64.582L1084.07 64.1133C1084.34 64.0352 1084.54 63.9375 1084.66 63.8203C1084.77 63.6901 1084.83 63.5339 1084.83 63.3516C1084.83 63.0391 1084.71 62.6745 1084.48 62.2578C1084.25 61.8281 1083.99 61.3919 1083.72 60.9492L1079.48 54.25L1075.63 60.2461C1075.23 60.8581 1074.87 61.431 1074.56 61.9648C1074.25 62.4987 1074.09 62.9479 1074.09 63.3125C1074.09 63.4948 1074.14 63.651 1074.23 63.7812C1074.32 63.8984 1074.5 63.9961 1074.77 64.0742L1076.45 64.543L1076.51 65.5586C1075.05 65.5195 1073.48 65.5 1071.8 65.5C1070.29 65.5 1068.76 65.5195 1067.21 65.5586L1067.12 64.582L1069.36 63.957C1069.85 63.8008 1070.26 63.5729 1070.61 63.2734C1070.96 62.9609 1071.34 62.4922 1071.75 61.8672L1078.21 52.2578L1071.53 41.6523C1071.1 40.9753 1070.73 40.5065 1070.42 40.2461C1070.12 39.9727 1069.76 39.7839 1069.34 39.6797L1067.31 39.1523L1067.23 38.1562C1069.07 38.2083 1071.19 38.2344 1073.58 38.2344C1075.65 38.2344 1077.84 38.2083 1080.14 38.1562L1080.26 39.1523L1078.54 39.6211C1078.27 39.6862 1078.07 39.7839 1077.96 39.9141C1077.84 40.0312 1077.78 40.1875 1077.78 40.3828C1077.78 40.6953 1077.9 41.0664 1078.13 41.4961C1078.38 41.9128 1078.64 42.3424 1078.91 42.7852L1082.25 48.0977L1085.26 43.4688C1085.68 42.8698 1086.04 42.2904 1086.36 41.7305C1086.67 41.1706 1086.82 40.7344 1086.82 40.4219C1086.82 40.0703 1086.56 39.8164 1086.04 39.6602L1084.32 39.1914L1084.27 38.1562C1085.71 38.2083 1087.27 38.2344 1088.93 38.2344C1090.55 38.2344 1092.07 38.2083 1093.5 38.1562L1093.62 39.1523L1091.43 39.7578C1090.93 39.9141 1090.52 40.1484 1090.2 40.4609C1089.9 40.7734 1089.49 41.3138 1088.97 42.082L1083.5 50.0898L1090.93 61.8281C1091.46 62.6745 1091.86 63.2279 1092.14 63.4883C1092.42 63.7357 1092.81 63.918 1093.29 64.0352L1095.3 64.582L1095.36 65.5586ZM1116.38 45.5391L1115.3 45.7148L1113.82 40.1094C1112.79 39.7839 1111.67 39.6211 1110.48 39.6211C1107.6 39.6211 1105.37 40.7018 1103.8 42.8633C1102.22 45.0117 1101.43 47.8307 1101.43 51.3203C1101.43 55.0443 1102.36 58.013 1104.21 60.2266C1106.07 62.4401 1108.65 63.5469 1111.94 63.5469C1113.78 63.5469 1115.71 63.1758 1117.74 62.4336L1118 63.5469C1115.39 65.3177 1112.45 66.2031 1109.17 66.2031C1104.91 66.2031 1101.47 64.9206 1098.84 62.3555C1096.22 59.7904 1094.91 56.4115 1094.91 52.2188C1094.91 47.7526 1096.35 44.2174 1099.23 41.6133C1102.1 39.0091 1105.86 37.707 1110.5 37.707C1112.79 37.707 1115.13 37.974 1117.53 38.5078L1117.64 38.7031L1116.38 45.5391ZM1130.12 43.7227V59.1719C1130.12 60.6042 1130.14 62.0234 1130.16 63.4297H1137.8L1140.48 57.8828L1141.67 57.707L1141.18 65.4219L1141.04 65.5586C1137.83 65.5195 1134.68 65.5 1131.61 65.5H1126.77C1124.83 65.5 1123.03 65.5195 1121.38 65.5586L1121.28 64.582L1123.7 63.8594C1124.02 63.7682 1124.2 63.5664 1124.23 63.2539C1124.24 62.7331 1124.25 62.1536 1124.25 61.5156C1124.26 60.8646 1124.27 60.1484 1124.27 59.3672V43.8008C1124.27 43.1497 1124.26 42.5573 1124.25 42.0234C1124.25 41.4896 1124.24 41.0013 1124.23 40.5586C1124.21 40.2201 1124.06 40.0052 1123.76 39.9141L1121.34 39.1523L1121.28 38.1562C1122.96 38.2083 1124.9 38.2344 1127.1 38.2344C1129.36 38.2344 1131.33 38.2083 1133 38.1562L1133.09 39.1523L1130.67 39.875C1130.36 39.9531 1130.19 40.1484 1130.16 40.4609C1130.15 40.9297 1130.14 41.6003 1130.12 42.4727C1130.12 43.332 1130.12 43.7487 1130.12 43.7227ZM1142.47 38.1562C1144.28 38.2083 1146.28 38.2344 1148.48 38.2344C1150.75 38.2344 1152.76 38.2083 1154.5 38.1562L1154.6 39.1523L1152.06 39.875C1151.75 39.9531 1151.58 40.1484 1151.55 40.4609C1151.54 40.9297 1151.52 41.4375 1151.51 41.9844C1151.51 42.5182 1151.51 43.0977 1151.51 43.7227V54.4844C1151.51 58.0391 1152.05 60.5 1153.11 61.8672C1154.18 63.2214 1155.91 63.8984 1158.31 63.8984C1160.67 63.8984 1162.43 63.1823 1163.6 61.75C1164.79 60.3047 1165.38 57.9674 1165.38 54.7383V43.7227C1165.38 43.0977 1165.37 42.5182 1165.36 41.9844C1165.35 41.4375 1165.33 40.9297 1165.32 40.4609C1165.31 40.1615 1165.14 39.9661 1164.81 39.875L1162.39 39.1914L1162.33 38.1562C1164.06 38.2083 1165.56 38.2344 1166.82 38.2344C1168 38.2344 1169.47 38.2083 1171.24 38.1562L1171.34 39.1523L1168.68 39.9141C1168.37 40.0052 1168.2 40.2201 1168.19 40.5586C1168.18 41.0013 1168.17 41.4896 1168.15 42.0234C1168.15 42.5573 1168.15 43.1497 1168.15 43.8008V53.7227C1168.15 58.2018 1167.23 61.418 1165.38 63.3711C1163.54 65.3112 1160.87 66.2812 1157.35 66.2812C1153.35 66.2812 1150.4 65.3568 1148.5 63.5078C1146.6 61.6458 1145.65 58.6706 1145.65 54.582V43.8008C1145.65 43.1497 1145.65 42.5573 1145.63 42.0234C1145.63 41.4896 1145.63 41.0013 1145.61 40.5586C1145.6 40.2201 1145.44 40.0052 1145.14 39.9141L1142.53 39.1523L1142.47 38.1562ZM1187.23 40.0117C1186.4 39.6862 1185.5 39.5234 1184.52 39.5234C1183.14 39.5234 1181.97 39.9271 1181 40.7344C1180.05 41.5417 1179.58 42.5833 1179.58 43.8594C1179.58 44.6276 1179.73 45.2852 1180.05 45.832C1180.36 46.3789 1180.78 46.8672 1181.3 47.2969C1181.82 47.7266 1182.41 48.1107 1183.07 48.4492C1183.75 48.7878 1184.45 49.1263 1185.16 49.4648C1185.96 49.8424 1186.76 50.2591 1187.57 50.7148C1188.37 51.1576 1189.1 51.6914 1189.73 52.3164C1190.37 52.9284 1190.89 53.6641 1191.28 54.5234C1191.68 55.3828 1191.88 56.4245 1191.88 57.6484C1191.88 60.2917 1190.89 62.3685 1188.89 63.8789C1186.9 65.3893 1184.27 66.1445 1181 66.1445C1178.65 66.1445 1176.32 65.7734 1174.03 65.0312L1173.91 64.8555L1174.95 57.8242L1176.16 57.6289L1177.62 63.6055C1178.56 64.0352 1179.6 64.25 1180.75 64.25C1182.4 64.25 1183.73 63.8333 1184.73 63C1185.75 62.1536 1186.26 61.0273 1186.26 59.6211C1186.26 58.8268 1186.1 58.1562 1185.79 57.6094C1185.48 57.0495 1185.05 56.5547 1184.52 56.125C1183.99 55.6823 1183.38 55.2917 1182.7 54.9531C1182.03 54.6146 1181.32 54.276 1180.59 53.9375C1179.8 53.5469 1179.01 53.1367 1178.21 52.707C1177.42 52.2773 1176.71 51.7565 1176.08 51.1445C1175.46 50.5326 1174.95 49.8034 1174.56 48.957C1174.17 48.0977 1173.97 47.0625 1173.97 45.8516C1173.97 43.3646 1174.92 41.3854 1176.82 39.9141C1178.73 38.4427 1181.19 37.707 1184.23 37.707C1186.15 37.707 1188.35 38.0065 1190.81 38.6055L1190.93 38.7812L1189.73 45.0703L1188.66 45.2461L1187.23 40.0117ZM1203.99 59.3672C1203.99 60.1484 1203.99 60.8581 1203.99 61.4961C1204.01 62.1341 1204.02 62.707 1204.03 63.2148C1204.04 63.5534 1204.27 63.7812 1204.7 63.8984L1207.1 64.582L1207.16 65.5586C1205.35 65.5195 1203.34 65.5 1201.14 65.5C1198.86 65.5 1196.83 65.5195 1195.05 65.5586L1194.95 64.582L1197.57 63.8594C1197.89 63.7682 1198.07 63.5664 1198.09 63.2539C1198.11 62.7331 1198.11 62.1536 1198.11 61.5156C1198.13 60.8646 1198.13 60.1484 1198.13 59.3672V43.8008C1198.13 43.1497 1198.13 42.5573 1198.11 42.0234C1198.11 41.4896 1198.11 41.0013 1198.09 40.5586C1198.08 40.2201 1197.92 40.0052 1197.62 39.9141L1195.01 39.1523L1194.95 38.1562C1196.76 38.2083 1198.76 38.2344 1200.96 38.2344C1203.23 38.2344 1205.26 38.2083 1207.06 38.1562L1207.16 39.1523L1204.54 39.875C1204.23 39.9531 1204.06 40.1484 1204.03 40.4609C1204.02 40.9297 1204.01 41.4375 1203.99 41.9844C1203.99 42.5182 1203.99 43.0977 1203.99 43.7227V59.3672ZM1223.25 55.7734C1223.5 56.5156 1223.73 57.2318 1223.93 57.9219C1224.17 57.2318 1224.42 56.5221 1224.68 55.793L1229.38 43.2539C1229.64 42.5247 1229.85 41.9453 1229.99 41.5156C1230.14 41.0859 1230.22 40.7474 1230.22 40.5C1230.22 40.2786 1230.16 40.1094 1230.03 39.9922C1229.91 39.875 1229.73 39.7839 1229.48 39.7188L1227.62 39.1914L1227.57 38.1562C1229.45 38.2083 1230.99 38.2344 1232.18 38.2344C1233.41 38.2344 1234.82 38.2083 1236.39 38.1562L1236.51 39.1523L1234.4 39.7578C1233.92 39.9141 1233.56 40.1549 1233.33 40.4805C1233.09 40.806 1232.83 41.3138 1232.55 42.0039L1222.96 65.5977L1220.91 65.793L1212.53 42.2383C1212.2 41.3398 1211.9 40.7344 1211.63 40.4219C1211.37 40.0964 1210.99 39.8555 1210.5 39.6992L1208.6 39.1523L1208.52 38.1562C1210.29 38.2083 1212.07 38.2344 1213.84 38.2344C1216.19 38.2344 1218.49 38.2083 1220.73 38.1562L1220.83 39.1523L1218.91 39.6992C1218.65 39.7773 1218.46 39.875 1218.35 39.9922C1218.23 40.1094 1218.17 40.2852 1218.17 40.5195C1218.17 40.7799 1218.24 41.125 1218.37 41.5547C1218.5 41.9714 1218.69 42.5312 1218.93 43.2344L1223.25 55.7734ZM1242.29 38.2344H1247.23C1250.4 38.2344 1253.68 38.2083 1257.08 38.1562L1257.21 38.3125L1256 44.8164L1254.95 44.9727L1253.7 40.2266H1246.14V50.5977H1247.2C1248.33 50.5977 1249.55 50.5846 1250.85 50.5586C1251.19 50.5456 1251.41 50.3698 1251.51 50.0312L1252.21 47.3555L1253.5 47.2969C1253.46 49.1849 1253.45 50.5977 1253.45 51.5352C1253.45 52.4466 1253.46 53.8398 1253.5 55.7148L1252.21 55.8125L1251.49 53.0586C1251.39 52.707 1251.19 52.5247 1250.89 52.5117C1249.56 52.4857 1248.32 52.4727 1247.18 52.4727H1246.14V59.1719C1246.14 60.6042 1246.15 62.0234 1246.18 63.4297H1253.99L1256.45 58.293L1257.64 58.1172L1257.18 65.4219L1257.04 65.5586C1253.8 65.5195 1250.64 65.5 1247.57 65.5H1242.39C1240.71 65.5 1238.98 65.5195 1237.2 65.5586L1237.1 64.582L1239.71 63.8594C1240.04 63.7682 1240.22 63.5664 1240.24 63.2539C1240.26 62.7331 1240.26 62.1536 1240.26 61.5156C1240.27 60.8646 1240.28 60.1484 1240.28 59.3672V43.8008C1240.28 43.1497 1240.27 42.5573 1240.26 42.0234C1240.26 41.4896 1240.26 41.0013 1240.24 40.5586C1240.23 40.2201 1240.07 40.0052 1239.77 39.9141L1237.16 39.1523L1237.1 38.1562C1238.92 38.2083 1240.65 38.2344 1242.29 38.2344ZM1284.15 40.0117C1283.32 39.6862 1282.41 39.5234 1281.43 39.5234C1280.05 39.5234 1278.88 39.9271 1277.92 40.7344C1276.97 41.5417 1276.49 42.5833 1276.49 43.8594C1276.49 44.6276 1276.65 45.2852 1276.96 45.832C1277.27 46.3789 1277.69 46.8672 1278.21 47.2969C1278.73 47.7266 1279.32 48.1107 1279.99 48.4492C1280.67 48.7878 1281.36 49.1263 1282.08 49.4648C1282.87 49.8424 1283.67 50.2591 1284.48 50.7148C1285.29 51.1576 1286.01 51.6914 1286.65 52.3164C1287.29 52.9284 1287.8 53.6641 1288.19 54.5234C1288.6 55.3828 1288.8 56.4245 1288.8 57.6484C1288.8 60.2917 1287.8 62.3685 1285.81 63.8789C1283.82 65.3893 1281.19 66.1445 1277.92 66.1445C1275.56 66.1445 1273.24 65.7734 1270.95 65.0312L1270.83 64.8555L1271.86 57.8242L1273.07 57.6289L1274.54 63.6055C1275.48 64.0352 1276.52 64.25 1277.66 64.25C1279.32 64.25 1280.65 63.8333 1281.65 63C1282.66 62.1536 1283.17 61.0273 1283.17 59.6211C1283.17 58.8268 1283.02 58.1562 1282.7 57.6094C1282.39 57.0495 1281.97 56.5547 1281.43 56.125C1280.9 55.6823 1280.29 55.2917 1279.62 54.9531C1278.94 54.6146 1278.24 54.276 1277.51 53.9375C1276.71 53.5469 1275.92 53.1367 1275.12 52.707C1274.33 52.2773 1273.62 51.7565 1273 51.1445C1272.37 50.5326 1271.86 49.8034 1271.47 48.957C1271.08 48.0977 1270.89 47.0625 1270.89 45.8516C1270.89 43.3646 1271.84 41.3854 1273.74 39.9141C1275.64 38.4427 1278.11 37.707 1281.14 37.707C1283.07 37.707 1285.26 38.0065 1287.72 38.6055L1287.84 38.7812L1286.65 45.0703L1285.57 45.2461L1284.15 40.0117ZM1300.91 43.7227V59.3672C1300.91 60.1484 1300.91 60.8581 1300.91 61.4961C1300.92 62.1341 1300.93 62.707 1300.95 63.2148C1300.96 63.5664 1301.13 63.7943 1301.45 63.8984L1303.72 64.582L1303.78 65.5586C1302.16 65.5195 1300.26 65.5 1298.05 65.5C1295.78 65.5 1293.74 65.5195 1291.96 65.5586L1291.86 64.582L1294.48 63.8594C1294.82 63.7552 1294.99 63.5534 1295.01 63.2539C1295.02 62.7331 1295.03 62.1536 1295.03 61.5156C1295.04 60.8646 1295.05 60.1484 1295.05 59.3672V43.8008C1295.05 43.1497 1295.04 42.5573 1295.03 42.0234C1295.03 41.4896 1295.02 41.0013 1295.01 40.5586C1294.99 40.2201 1294.84 40.0052 1294.54 39.9141L1291.92 39.1523L1291.86 38.1562C1293.67 38.2083 1295.68 38.2344 1297.88 38.2344C1300.13 38.2344 1302.06 38.2083 1303.66 38.1562L1303.78 39.1523L1301.45 39.8164C1301.14 39.9076 1300.97 40.1094 1300.95 40.4219C1300.93 40.9036 1300.92 41.418 1300.91 41.9648C1300.91 42.5117 1300.91 43.0977 1300.91 43.7227ZM1301.36 51.8477L1309.36 43.0391C1310 42.349 1310.5 41.7695 1310.87 41.3008C1311.23 40.819 1311.41 40.4349 1311.41 40.1484C1311.41 39.901 1311.24 39.7253 1310.89 39.6211L1309.19 39.1914L1309.13 38.1562C1310.51 38.2083 1312.02 38.2344 1313.66 38.2344C1315.27 38.2344 1316.81 38.2083 1318.27 38.1562L1318.37 39.1523L1316.16 39.7578C1315.52 39.9531 1314.98 40.2526 1314.52 40.6562C1314.06 41.0599 1313.58 41.5352 1313.07 42.082L1306.38 49.5625L1314.97 62.1992C1315.39 62.7852 1315.76 63.2018 1316.08 63.4492C1316.41 63.6836 1316.8 63.8659 1317.25 63.9961L1319.15 64.582L1319.21 65.5586C1317.76 65.5195 1316.27 65.5 1314.73 65.5C1313.3 65.5 1311.76 65.513 1310.11 65.5391C1309.71 64.6797 1308.65 62.9349 1306.92 60.3047L1301.36 51.8477ZM1330.16 59.3672C1330.16 60.1484 1330.16 60.8581 1330.16 61.4961C1330.18 62.1341 1330.19 62.707 1330.2 63.2148C1330.22 63.5534 1330.44 63.7812 1330.87 63.8984L1333.27 64.582L1333.33 65.5586C1331.52 65.5195 1329.51 65.5 1327.31 65.5C1325.03 65.5 1323 65.5195 1321.22 65.5586L1321.12 64.582L1323.74 63.8594C1324.06 63.7682 1324.24 63.5664 1324.27 63.2539C1324.28 62.7331 1324.29 62.1536 1324.29 61.5156C1324.3 60.8646 1324.3 60.1484 1324.3 59.3672V43.8008C1324.3 43.1497 1324.3 42.5573 1324.29 42.0234C1324.29 41.4896 1324.28 41.0013 1324.27 40.5586C1324.25 40.2201 1324.1 40.0052 1323.8 39.9141L1321.18 39.1523L1321.12 38.1562C1322.93 38.2083 1324.94 38.2344 1327.14 38.2344C1329.4 38.2344 1331.43 38.2083 1333.23 38.1562L1333.33 39.1523L1330.71 39.875C1330.4 39.9531 1330.23 40.1484 1330.2 40.4609C1330.19 40.9297 1330.18 41.4375 1330.16 41.9844C1330.16 42.5182 1330.16 43.0977 1330.16 43.7227V59.3672ZM1342.04 63.1758C1342.05 63.5534 1342.21 63.7812 1342.53 63.8594L1345.03 64.543L1345.09 65.5586C1343.33 65.5195 1341.88 65.5 1340.75 65.5C1339.63 65.5 1338.17 65.5195 1336.36 65.5586L1336.26 64.582L1338.88 63.8594C1339.21 63.7552 1339.39 63.5534 1339.4 63.2539C1339.43 62.1992 1339.44 60.9036 1339.44 59.3672V43.8008C1339.44 42.4987 1339.43 41.418 1339.4 40.5586C1339.39 40.2201 1339.23 40.0052 1338.93 39.9141L1336.32 39.1523L1336.26 38.1562C1338.08 38.2083 1339.48 38.2344 1340.46 38.2344C1341.73 38.2344 1342.94 38.2083 1344.09 38.1562L1357.08 54.4258C1357.6 55.0768 1358.13 55.7669 1358.68 56.4961C1358.65 55.5977 1358.64 54.7318 1358.64 53.8984V43.7227C1358.64 42.4596 1358.63 41.3724 1358.6 40.4609C1358.59 40.1615 1358.42 39.9661 1358.09 39.875L1355.59 39.1914L1355.54 38.1562C1357.33 38.2083 1358.79 38.2344 1359.91 38.2344C1361.06 38.2344 1362.51 38.2083 1364.27 38.1562L1364.36 39.1523L1361.71 39.9141C1361.41 40.0052 1361.25 40.2201 1361.24 40.5586C1361.2 41.418 1361.18 42.4987 1361.18 43.8008V65.5L1358.93 65.7148L1343.54 46.4375C1343.09 45.8516 1342.56 45.1549 1341.96 44.3477C1341.99 45.3112 1342 46.1966 1342 47.0039V59.3672C1342 60.9036 1342.01 62.1732 1342.04 63.1758ZM1388.68 45.5391L1387.61 45.7148L1386.12 40.1094C1385.09 39.7839 1383.98 39.6211 1382.78 39.6211C1379.9 39.6211 1377.68 40.7018 1376.1 42.8633C1374.53 45.0117 1373.74 47.8307 1373.74 51.3203C1373.74 55.0443 1374.66 58.013 1376.51 60.2266C1378.37 62.4401 1380.95 63.5469 1384.25 63.5469C1386.08 63.5469 1388.02 63.1758 1390.05 62.4336L1390.3 63.5469C1387.7 65.3177 1384.75 66.2031 1381.47 66.2031C1377.21 66.2031 1373.77 64.9206 1371.14 62.3555C1368.52 59.7904 1367.21 56.4115 1367.21 52.2188C1367.21 47.7526 1368.65 44.2174 1371.53 41.6133C1374.41 39.0091 1378.17 37.707 1382.8 37.707C1385.09 37.707 1387.44 37.974 1389.83 38.5078L1389.95 38.7031L1388.68 45.5391ZM1399.11 56.8281L1397.72 60.4805C1397.45 61.1966 1397.23 61.776 1397.08 62.2188C1396.93 62.6484 1396.86 62.9805 1396.86 63.2148C1396.86 63.4362 1396.92 63.6055 1397.04 63.7227C1397.16 63.8398 1397.34 63.931 1397.59 63.9961L1399.46 64.543L1399.52 65.5586C1397.63 65.5195 1396.1 65.5 1394.91 65.5C1393.67 65.5 1392.26 65.5195 1390.67 65.5586L1390.57 64.582L1392.66 63.957C1393.16 63.8138 1393.52 63.5794 1393.76 63.2539C1393.99 62.9154 1394.25 62.4076 1394.54 61.7305L1404.27 38.0391L1406.38 37.7266L1414.79 61.4766C1415.12 62.388 1415.41 63.0065 1415.67 63.332C1415.95 63.6445 1416.33 63.8724 1416.82 64.0156L1418.74 64.582L1418.8 65.5586C1417.04 65.5195 1415.27 65.5 1413.48 65.5C1411.13 65.5 1408.83 65.5195 1406.59 65.5586L1406.49 64.582L1408.43 64.0156C1408.69 63.9375 1408.88 63.8398 1408.99 63.7227C1409.11 63.6055 1409.17 63.4297 1409.17 63.1953C1409.17 62.9349 1409.1 62.5964 1408.97 62.1797C1408.84 61.75 1408.65 61.1901 1408.41 60.5L1407.12 56.8281H1399.11ZM1403.33 45.6172C1403.09 46.2943 1402.84 46.9974 1402.57 47.7266L1399.89 54.7969H1406.41L1404.01 47.7461C1403.76 47.0039 1403.54 46.2943 1403.33 45.6172ZM1429.17 59.3672C1429.17 60.1484 1429.17 60.8516 1429.17 61.4766C1429.18 62.0885 1429.19 62.6484 1429.21 63.1562C1429.22 63.5729 1429.37 63.8268 1429.66 63.918L1431.69 64.582L1431.75 65.5586C1430.3 65.5195 1428.51 65.5 1426.38 65.5C1424.1 65.5 1422.07 65.5195 1420.28 65.5586L1420.18 64.582L1422.8 63.8594C1423.13 63.7682 1423.3 63.5664 1423.33 63.2539C1423.34 62.7331 1423.35 62.1536 1423.35 61.5156C1423.36 60.8646 1423.37 60.1484 1423.37 59.3672V43.8008C1423.37 43.1497 1423.36 42.5573 1423.35 42.0234C1423.35 41.4896 1423.34 41.0013 1423.33 40.5586C1423.32 40.2201 1423.16 40.0052 1422.86 39.9141L1420.24 39.1523L1420.18 38.1562C1422.01 38.2083 1423.88 38.2344 1425.79 38.2344C1426.19 38.2344 1426.69 38.2279 1427.29 38.2148C1427.89 38.1888 1428.62 38.1628 1429.48 38.1367C1430.26 38.1107 1430.91 38.0911 1431.43 38.0781C1431.97 38.0651 1432.38 38.0586 1432.68 38.0586C1436.03 38.0586 1438.54 38.6185 1440.2 39.7383C1441.88 40.8581 1442.72 42.4922 1442.72 44.6406C1442.72 46.5807 1442.21 48.1497 1441.18 49.3477C1440.16 50.5326 1438.67 51.444 1436.69 52.082C1437.78 53.6966 1438.62 55.0052 1439.21 56.0078C1439.81 57.0104 1440.4 58 1441 58.9766C1441.6 59.9401 1442.14 60.793 1442.62 61.5352C1443.12 62.2773 1443.58 62.8633 1444.01 63.293C1444.25 63.4883 1444.47 63.6576 1444.68 63.8008C1444.9 63.944 1445.12 64.0677 1445.36 64.1719C1445.59 64.276 1445.84 64.3672 1446.1 64.4453C1446.38 64.5104 1446.67 64.5755 1447 64.6406L1447.08 65.6367C1445.8 65.819 1444.34 65.9102 1442.7 65.9102C1441.4 65.9102 1440.49 65.8255 1439.97 65.6562C1439.45 65.487 1438.99 65.2461 1438.58 64.9336C1437.98 64.4648 1437.43 63.8529 1436.92 63.0977C1436.43 62.3424 1435.9 61.4896 1435.34 60.5391C1434.78 59.5885 1434.2 58.5794 1433.6 57.5117C1433.02 56.444 1432.4 55.3893 1431.75 54.3477C1431.55 54.0482 1431.39 53.8008 1431.26 53.6055C1431.14 53.4102 1431.02 53.2669 1430.89 53.1758C1430.77 53.0716 1430.64 53 1430.5 52.9609C1430.37 52.9089 1430.2 52.8763 1429.99 52.8633L1429.17 52.8438V59.3672ZM1429.17 51.1445C1429.86 51.1836 1430.48 51.2031 1431.04 51.2031C1432.89 51.2031 1434.25 50.7409 1435.11 49.8164C1435.96 48.8789 1436.39 47.4206 1436.39 45.4414C1436.39 43.5273 1435.98 42.1341 1435.14 41.2617C1434.32 40.3763 1433.04 39.9336 1431.3 39.9336C1431 39.9336 1430.67 39.9466 1430.32 39.9727C1429.98 39.9987 1429.6 40.0378 1429.17 40.0898V51.1445ZM1453.58 38.2344H1458.52C1461.69 38.2344 1464.97 38.2083 1468.37 38.1562L1468.5 38.3125L1467.29 44.8164L1466.24 44.9727L1464.99 40.2266H1457.43V50.5977H1458.48C1459.62 50.5977 1460.83 50.5846 1462.14 50.5586C1462.48 50.5456 1462.7 50.3698 1462.8 50.0312L1463.5 47.3555L1464.79 47.2969C1464.75 49.1849 1464.73 50.5977 1464.73 51.5352C1464.73 52.4466 1464.75 53.8398 1464.79 55.7148L1463.5 55.8125L1462.78 53.0586C1462.68 52.707 1462.48 52.5247 1462.18 52.5117C1460.85 52.4857 1459.61 52.4727 1458.46 52.4727H1457.43V59.1719C1457.43 60.6042 1457.44 62.0234 1457.47 63.4297H1465.28L1467.74 58.293L1468.93 58.1172L1468.46 65.4219L1468.33 65.5586C1465.09 65.5195 1461.93 65.5 1458.86 65.5H1453.68C1452 65.5 1450.27 65.5195 1448.48 65.5586L1448.39 64.582L1451 63.8594C1451.33 63.7682 1451.51 63.5664 1451.53 63.2539C1451.54 62.7331 1451.55 62.1536 1451.55 61.5156C1451.56 60.8646 1451.57 60.1484 1451.57 59.3672V43.8008C1451.57 43.1497 1451.56 42.5573 1451.55 42.0234C1451.55 41.4896 1451.54 41.0013 1451.53 40.5586C1451.52 40.2201 1451.36 40.0052 1451.06 39.9141L1448.45 39.1523L1448.39 38.1562C1450.21 38.2083 1451.94 38.2344 1453.58 38.2344Z" fill="#381802"/>
<circle cx="1566" cy="55" r="15" fill="#381802"/>
<path d="M1668.11 38.2344H1673.05C1676.21 38.2344 1679.49 38.2083 1682.89 38.1562L1683.03 38.3125L1681.82 44.8164L1680.76 44.9727L1679.51 40.2266H1671.95V50.5977H1673.01C1674.14 50.5977 1675.36 50.5846 1676.66 50.5586C1677 50.5456 1677.22 50.3698 1677.32 50.0312L1678.03 47.3555L1679.32 47.2969C1679.28 49.1849 1679.26 50.5977 1679.26 51.5352C1679.26 52.4466 1679.28 53.8398 1679.32 55.7148L1678.03 55.8125L1677.3 53.0586C1677.2 52.707 1677 52.5247 1676.7 52.5117C1675.37 52.4857 1674.13 52.4727 1672.99 52.4727H1671.95V59.1719C1671.95 60.6042 1671.97 62.0234 1671.99 63.4297H1679.8L1682.27 58.293L1683.46 58.1172L1682.99 65.4219L1682.85 65.5586C1679.61 65.5195 1676.45 65.5 1673.38 65.5H1668.2C1666.52 65.5 1664.79 65.5195 1663.01 65.5586L1662.91 64.582L1665.53 63.8594C1665.85 63.7682 1666.03 63.5664 1666.05 63.2539C1666.07 62.7331 1666.07 62.1536 1666.07 61.5156C1666.09 60.8646 1666.09 60.1484 1666.09 59.3672V43.8008C1666.09 43.1497 1666.09 42.5573 1666.07 42.0234C1666.07 41.4896 1666.07 41.0013 1666.05 40.5586C1666.04 40.2201 1665.89 40.0052 1665.59 39.9141L1662.97 39.1523L1662.91 38.1562C1664.73 38.2083 1666.46 38.2344 1668.11 38.2344ZM1713.36 65.5586C1711.55 65.5195 1709.54 65.5 1707.32 65.5C1705.25 65.5 1702.97 65.5195 1700.47 65.5586L1700.33 64.582L1702.07 64.1133C1702.34 64.0352 1702.54 63.9375 1702.66 63.8203C1702.77 63.6901 1702.83 63.5339 1702.83 63.3516C1702.83 63.0391 1702.71 62.6745 1702.48 62.2578C1702.25 61.8281 1701.99 61.3919 1701.72 60.9492L1697.48 54.25L1693.63 60.2461C1693.23 60.8581 1692.87 61.431 1692.56 61.9648C1692.25 62.4987 1692.09 62.9479 1692.09 63.3125C1692.09 63.4948 1692.14 63.651 1692.23 63.7812C1692.32 63.8984 1692.5 63.9961 1692.77 64.0742L1694.45 64.543L1694.51 65.5586C1693.05 65.5195 1691.48 65.5 1689.8 65.5C1688.29 65.5 1686.76 65.5195 1685.21 65.5586L1685.12 64.582L1687.36 63.957C1687.85 63.8008 1688.26 63.5729 1688.61 63.2734C1688.96 62.9609 1689.34 62.4922 1689.75 61.8672L1696.21 52.2578L1689.53 41.6523C1689.1 40.9753 1688.73 40.5065 1688.42 40.2461C1688.12 39.9727 1687.76 39.7839 1687.34 39.6797L1685.31 39.1523L1685.23 38.1562C1687.07 38.2083 1689.19 38.2344 1691.58 38.2344C1693.65 38.2344 1695.84 38.2083 1698.14 38.1562L1698.26 39.1523L1696.54 39.6211C1696.27 39.6862 1696.07 39.7839 1695.96 39.9141C1695.84 40.0312 1695.78 40.1875 1695.78 40.3828C1695.78 40.6953 1695.9 41.0664 1696.13 41.4961C1696.38 41.9128 1696.64 42.3424 1696.91 42.7852L1700.25 48.0977L1703.26 43.4688C1703.68 42.8698 1704.04 42.2904 1704.36 41.7305C1704.67 41.1706 1704.82 40.7344 1704.82 40.4219C1704.82 40.0703 1704.56 39.8164 1704.04 39.6602L1702.32 39.1914L1702.27 38.1562C1703.71 38.2083 1705.27 38.2344 1706.93 38.2344C1708.55 38.2344 1710.07 38.2083 1711.5 38.1562L1711.62 39.1523L1709.43 39.7578C1708.93 39.9141 1708.52 40.1484 1708.2 40.4609C1707.9 40.7734 1707.49 41.3138 1706.97 42.082L1701.5 50.0898L1708.93 61.8281C1709.46 62.6745 1709.86 63.2279 1710.14 63.4883C1710.42 63.7357 1710.81 63.918 1711.29 64.0352L1713.3 64.582L1713.36 65.5586ZM1734.38 45.5391L1733.3 45.7148L1731.82 40.1094C1730.79 39.7839 1729.67 39.6211 1728.48 39.6211C1725.6 39.6211 1723.37 40.7018 1721.8 42.8633C1720.22 45.0117 1719.43 47.8307 1719.43 51.3203C1719.43 55.0443 1720.36 58.013 1722.21 60.2266C1724.07 62.4401 1726.65 63.5469 1729.94 63.5469C1731.78 63.5469 1733.71 63.1758 1735.74 62.4336L1736 63.5469C1733.39 65.3177 1730.45 66.2031 1727.17 66.2031C1722.91 66.2031 1719.47 64.9206 1716.84 62.3555C1714.22 59.7904 1712.91 56.4115 1712.91 52.2188C1712.91 47.7526 1714.35 44.2174 1717.23 41.6133C1720.1 39.0091 1723.86 37.707 1728.5 37.707C1730.79 37.707 1733.13 37.974 1735.53 38.5078L1735.64 38.7031L1734.38 45.5391ZM1748.12 43.7227V59.1719C1748.12 60.6042 1748.14 62.0234 1748.16 63.4297H1755.8L1758.48 57.8828L1759.67 57.707L1759.18 65.4219L1759.04 65.5586C1755.83 65.5195 1752.68 65.5 1749.61 65.5H1744.77C1742.83 65.5 1741.03 65.5195 1739.38 65.5586L1739.28 64.582L1741.7 63.8594C1742.02 63.7682 1742.2 63.5664 1742.23 63.2539C1742.24 62.7331 1742.25 62.1536 1742.25 61.5156C1742.26 60.8646 1742.27 60.1484 1742.27 59.3672V43.8008C1742.27 43.1497 1742.26 42.5573 1742.25 42.0234C1742.25 41.4896 1742.24 41.0013 1742.23 40.5586C1742.21 40.2201 1742.06 40.0052 1741.76 39.9141L1739.34 39.1523L1739.28 38.1562C1740.96 38.2083 1742.9 38.2344 1745.1 38.2344C1747.36 38.2344 1749.33 38.2083 1751 38.1562L1751.09 39.1523L1748.67 39.875C1748.36 39.9531 1748.19 40.1484 1748.16 40.4609C1748.15 40.9297 1748.14 41.6003 1748.12 42.4727C1748.12 43.332 1748.12 43.7487 1748.12 43.7227ZM1760.47 38.1562C1762.28 38.2083 1764.28 38.2344 1766.48 38.2344C1768.75 38.2344 1770.76 38.2083 1772.5 38.1562L1772.6 39.1523L1770.06 39.875C1769.75 39.9531 1769.58 40.1484 1769.55 40.4609C1769.54 40.9297 1769.52 41.4375 1769.51 41.9844C1769.51 42.5182 1769.51 43.0977 1769.51 43.7227V54.4844C1769.51 58.0391 1770.05 60.5 1771.11 61.8672C1772.18 63.2214 1773.91 63.8984 1776.31 63.8984C1778.67 63.8984 1780.43 63.1823 1781.6 61.75C1782.79 60.3047 1783.38 57.9674 1783.38 54.7383V43.7227C1783.38 43.0977 1783.37 42.5182 1783.36 41.9844C1783.35 41.4375 1783.33 40.9297 1783.32 40.4609C1783.31 40.1615 1783.14 39.9661 1782.81 39.875L1780.39 39.1914L1780.33 38.1562C1782.06 38.2083 1783.56 38.2344 1784.82 38.2344C1786 38.2344 1787.47 38.2083 1789.24 38.1562L1789.34 39.1523L1786.68 39.9141C1786.37 40.0052 1786.2 40.2201 1786.19 40.5586C1786.18 41.0013 1786.17 41.4896 1786.15 42.0234C1786.15 42.5573 1786.15 43.1497 1786.15 43.8008V53.7227C1786.15 58.2018 1785.23 61.418 1783.38 63.3711C1781.54 65.3112 1778.87 66.2812 1775.35 66.2812C1771.35 66.2812 1768.4 65.3568 1766.5 63.5078C1764.6 61.6458 1763.65 58.6706 1763.65 54.582V43.8008C1763.65 43.1497 1763.65 42.5573 1763.63 42.0234C1763.63 41.4896 1763.63 41.0013 1763.61 40.5586C1763.6 40.2201 1763.44 40.0052 1763.14 39.9141L1760.53 39.1523L1760.47 38.1562ZM1805.23 40.0117C1804.4 39.6862 1803.5 39.5234 1802.52 39.5234C1801.14 39.5234 1799.97 39.9271 1799 40.7344C1798.05 41.5417 1797.58 42.5833 1797.58 43.8594C1797.58 44.6276 1797.73 45.2852 1798.05 45.832C1798.36 46.3789 1798.78 46.8672 1799.3 47.2969C1799.82 47.7266 1800.41 48.1107 1801.07 48.4492C1801.75 48.7878 1802.45 49.1263 1803.16 49.4648C1803.96 49.8424 1804.76 50.2591 1805.57 50.7148C1806.37 51.1576 1807.1 51.6914 1807.73 52.3164C1808.37 52.9284 1808.89 53.6641 1809.28 54.5234C1809.68 55.3828 1809.88 56.4245 1809.88 57.6484C1809.88 60.2917 1808.89 62.3685 1806.89 63.8789C1804.9 65.3893 1802.27 66.1445 1799 66.1445C1796.65 66.1445 1794.32 65.7734 1792.03 65.0312L1791.91 64.8555L1792.95 57.8242L1794.16 57.6289L1795.62 63.6055C1796.56 64.0352 1797.6 64.25 1798.75 64.25C1800.4 64.25 1801.73 63.8333 1802.73 63C1803.75 62.1536 1804.26 61.0273 1804.26 59.6211C1804.26 58.8268 1804.1 58.1562 1803.79 57.6094C1803.48 57.0495 1803.05 56.5547 1802.52 56.125C1801.99 55.6823 1801.38 55.2917 1800.7 54.9531C1800.03 54.6146 1799.32 54.276 1798.59 53.9375C1797.8 53.5469 1797.01 53.1367 1796.21 52.707C1795.42 52.2773 1794.71 51.7565 1794.08 51.1445C1793.46 50.5326 1792.95 49.8034 1792.56 48.957C1792.17 48.0977 1791.97 47.0625 1791.97 45.8516C1791.97 43.3646 1792.92 41.3854 1794.82 39.9141C1796.73 38.4427 1799.19 37.707 1802.23 37.707C1804.15 37.707 1806.35 38.0065 1808.81 38.6055L1808.93 38.7812L1807.73 45.0703L1806.66 45.2461L1805.23 40.0117ZM1821.99 59.3672C1821.99 60.1484 1821.99 60.8581 1821.99 61.4961C1822.01 62.1341 1822.02 62.707 1822.03 63.2148C1822.04 63.5534 1822.27 63.7812 1822.7 63.8984L1825.1 64.582L1825.16 65.5586C1823.35 65.5195 1821.34 65.5 1819.14 65.5C1816.86 65.5 1814.83 65.5195 1813.05 65.5586L1812.95 64.582L1815.57 63.8594C1815.89 63.7682 1816.07 63.5664 1816.09 63.2539C1816.11 62.7331 1816.11 62.1536 1816.11 61.5156C1816.13 60.8646 1816.13 60.1484 1816.13 59.3672V43.8008C1816.13 43.1497 1816.13 42.5573 1816.11 42.0234C1816.11 41.4896 1816.11 41.0013 1816.09 40.5586C1816.08 40.2201 1815.92 40.0052 1815.62 39.9141L1813.01 39.1523L1812.95 38.1562C1814.76 38.2083 1816.76 38.2344 1818.96 38.2344C1821.23 38.2344 1823.26 38.2083 1825.06 38.1562L1825.16 39.1523L1822.54 39.875C1822.23 39.9531 1822.06 40.1484 1822.03 40.4609C1822.02 40.9297 1822.01 41.4375 1821.99 41.9844C1821.99 42.5182 1821.99 43.0977 1821.99 43.7227V59.3672ZM1841.25 55.7734C1841.5 56.5156 1841.73 57.2318 1841.93 57.9219C1842.17 57.2318 1842.42 56.5221 1842.68 55.793L1847.38 43.2539C1847.64 42.5247 1847.85 41.9453 1847.99 41.5156C1848.14 41.0859 1848.22 40.7474 1848.22 40.5C1848.22 40.2786 1848.16 40.1094 1848.03 39.9922C1847.91 39.875 1847.73 39.7839 1847.48 39.7188L1845.62 39.1914L1845.57 38.1562C1847.45 38.2083 1848.99 38.2344 1850.18 38.2344C1851.41 38.2344 1852.82 38.2083 1854.39 38.1562L1854.51 39.1523L1852.4 39.7578C1851.92 39.9141 1851.56 40.1549 1851.33 40.4805C1851.09 40.806 1850.83 41.3138 1850.55 42.0039L1840.96 65.5977L1838.91 65.793L1830.53 42.2383C1830.2 41.3398 1829.9 40.7344 1829.63 40.4219C1829.37 40.0964 1828.99 39.8555 1828.5 39.6992L1826.6 39.1523L1826.52 38.1562C1828.29 38.2083 1830.07 38.2344 1831.84 38.2344C1834.19 38.2344 1836.49 38.2083 1838.73 38.1562L1838.83 39.1523L1836.91 39.6992C1836.65 39.7773 1836.46 39.875 1836.35 39.9922C1836.23 40.1094 1836.17 40.2852 1836.17 40.5195C1836.17 40.7799 1836.24 41.125 1836.37 41.5547C1836.5 41.9714 1836.69 42.5312 1836.93 43.2344L1841.25 55.7734ZM1860.29 38.2344H1865.23C1868.4 38.2344 1871.68 38.2083 1875.08 38.1562L1875.21 38.3125L1874 44.8164L1872.95 44.9727L1871.7 40.2266H1864.14V50.5977H1865.2C1866.33 50.5977 1867.55 50.5846 1868.85 50.5586C1869.19 50.5456 1869.41 50.3698 1869.51 50.0312L1870.21 47.3555L1871.5 47.2969C1871.46 49.1849 1871.45 50.5977 1871.45 51.5352C1871.45 52.4466 1871.46 53.8398 1871.5 55.7148L1870.21 55.8125L1869.49 53.0586C1869.39 52.707 1869.19 52.5247 1868.89 52.5117C1867.56 52.4857 1866.32 52.4727 1865.18 52.4727H1864.14V59.1719C1864.14 60.6042 1864.15 62.0234 1864.18 63.4297H1871.99L1874.45 58.293L1875.64 58.1172L1875.18 65.4219L1875.04 65.5586C1871.8 65.5195 1868.64 65.5 1865.57 65.5H1860.39C1858.71 65.5 1856.98 65.5195 1855.2 65.5586L1855.1 64.582L1857.71 63.8594C1858.04 63.7682 1858.22 63.5664 1858.24 63.2539C1858.26 62.7331 1858.26 62.1536 1858.26 61.5156C1858.27 60.8646 1858.28 60.1484 1858.28 59.3672V43.8008C1858.28 43.1497 1858.27 42.5573 1858.26 42.0234C1858.26 41.4896 1858.26 41.0013 1858.24 40.5586C1858.23 40.2201 1858.07 40.0052 1857.77 39.9141L1855.16 39.1523L1855.1 38.1562C1856.92 38.2083 1858.65 38.2344 1860.29 38.2344ZM1902.15 40.0117C1901.32 39.6862 1900.41 39.5234 1899.43 39.5234C1898.05 39.5234 1896.88 39.9271 1895.92 40.7344C1894.97 41.5417 1894.49 42.5833 1894.49 43.8594C1894.49 44.6276 1894.65 45.2852 1894.96 45.832C1895.27 46.3789 1895.69 46.8672 1896.21 47.2969C1896.73 47.7266 1897.32 48.1107 1897.99 48.4492C1898.67 48.7878 1899.36 49.1263 1900.08 49.4648C1900.87 49.8424 1901.67 50.2591 1902.48 50.7148C1903.29 51.1576 1904.01 51.6914 1904.65 52.3164C1905.29 52.9284 1905.8 53.6641 1906.19 54.5234C1906.6 55.3828 1906.8 56.4245 1906.8 57.6484C1906.8 60.2917 1905.8 62.3685 1903.81 63.8789C1901.82 65.3893 1899.19 66.1445 1895.92 66.1445C1893.56 66.1445 1891.24 65.7734 1888.95 65.0312L1888.83 64.8555L1889.86 57.8242L1891.07 57.6289L1892.54 63.6055C1893.48 64.0352 1894.52 64.25 1895.66 64.25C1897.32 64.25 1898.65 63.8333 1899.65 63C1900.66 62.1536 1901.17 61.0273 1901.17 59.6211C1901.17 58.8268 1901.02 58.1562 1900.7 57.6094C1900.39 57.0495 1899.97 56.5547 1899.43 56.125C1898.9 55.6823 1898.29 55.2917 1897.62 54.9531C1896.94 54.6146 1896.24 54.276 1895.51 53.9375C1894.71 53.5469 1893.92 53.1367 1893.12 52.707C1892.33 52.2773 1891.62 51.7565 1891 51.1445C1890.37 50.5326 1889.86 49.8034 1889.47 48.957C1889.08 48.0977 1888.89 47.0625 1888.89 45.8516C1888.89 43.3646 1889.84 41.3854 1891.74 39.9141C1893.64 38.4427 1896.11 37.707 1899.14 37.707C1901.07 37.707 1903.26 38.0065 1905.72 38.6055L1905.84 38.7812L1904.65 45.0703L1903.57 45.2461L1902.15 40.0117ZM1918.91 43.7227V59.3672C1918.91 60.1484 1918.91 60.8581 1918.91 61.4961C1918.92 62.1341 1918.93 62.707 1918.95 63.2148C1918.96 63.5664 1919.13 63.7943 1919.45 63.8984L1921.72 64.582L1921.78 65.5586C1920.16 65.5195 1918.26 65.5 1916.05 65.5C1913.78 65.5 1911.74 65.5195 1909.96 65.5586L1909.86 64.582L1912.48 63.8594C1912.82 63.7552 1912.99 63.5534 1913.01 63.2539C1913.02 62.7331 1913.03 62.1536 1913.03 61.5156C1913.04 60.8646 1913.05 60.1484 1913.05 59.3672V43.8008C1913.05 43.1497 1913.04 42.5573 1913.03 42.0234C1913.03 41.4896 1913.02 41.0013 1913.01 40.5586C1912.99 40.2201 1912.84 40.0052 1912.54 39.9141L1909.92 39.1523L1909.86 38.1562C1911.67 38.2083 1913.68 38.2344 1915.88 38.2344C1918.13 38.2344 1920.06 38.2083 1921.66 38.1562L1921.78 39.1523L1919.45 39.8164C1919.14 39.9076 1918.97 40.1094 1918.95 40.4219C1918.93 40.9036 1918.92 41.418 1918.91 41.9648C1918.91 42.5117 1918.91 43.0977 1918.91 43.7227ZM1919.36 51.8477L1927.36 43.0391C1928 42.349 1928.5 41.7695 1928.87 41.3008C1929.23 40.819 1929.41 40.4349 1929.41 40.1484C1929.41 39.901 1929.24 39.7253 1928.89 39.6211L1927.19 39.1914L1927.13 38.1562C1928.51 38.2083 1930.02 38.2344 1931.66 38.2344C1933.27 38.2344 1934.81 38.2083 1936.27 38.1562L1936.37 39.1523L1934.16 39.7578C1933.52 39.9531 1932.98 40.2526 1932.52 40.6562C1932.06 41.0599 1931.58 41.5352 1931.07 42.082L1924.38 49.5625L1932.97 62.1992C1933.39 62.7852 1933.76 63.2018 1934.08 63.4492C1934.41 63.6836 1934.8 63.8659 1935.25 63.9961L1937.15 64.582L1937.21 65.5586C1935.76 65.5195 1934.27 65.5 1932.73 65.5C1931.3 65.5 1929.76 65.513 1928.11 65.5391C1927.71 64.6797 1926.65 62.9349 1924.92 60.3047L1919.36 51.8477ZM1948.16 59.3672C1948.16 60.1484 1948.16 60.8581 1948.16 61.4961C1948.18 62.1341 1948.19 62.707 1948.2 63.2148C1948.22 63.5534 1948.44 63.7812 1948.87 63.8984L1951.27 64.582L1951.33 65.5586C1949.52 65.5195 1947.51 65.5 1945.31 65.5C1943.03 65.5 1941 65.5195 1939.22 65.5586L1939.12 64.582L1941.74 63.8594C1942.06 63.7682 1942.24 63.5664 1942.27 63.2539C1942.28 62.7331 1942.29 62.1536 1942.29 61.5156C1942.3 60.8646 1942.3 60.1484 1942.3 59.3672V43.8008C1942.3 43.1497 1942.3 42.5573 1942.29 42.0234C1942.29 41.4896 1942.28 41.0013 1942.27 40.5586C1942.25 40.2201 1942.1 40.0052 1941.8 39.9141L1939.18 39.1523L1939.12 38.1562C1940.93 38.2083 1942.94 38.2344 1945.14 38.2344C1947.4 38.2344 1949.43 38.2083 1951.23 38.1562L1951.33 39.1523L1948.71 39.875C1948.4 39.9531 1948.23 40.1484 1948.2 40.4609C1948.19 40.9297 1948.18 41.4375 1948.16 41.9844C1948.16 42.5182 1948.16 43.0977 1948.16 43.7227V59.3672ZM1960.04 63.1758C1960.05 63.5534 1960.21 63.7812 1960.53 63.8594L1963.03 64.543L1963.09 65.5586C1961.33 65.5195 1959.88 65.5 1958.75 65.5C1957.63 65.5 1956.17 65.5195 1954.36 65.5586L1954.26 64.582L1956.88 63.8594C1957.21 63.7552 1957.39 63.5534 1957.4 63.2539C1957.43 62.1992 1957.44 60.9036 1957.44 59.3672V43.8008C1957.44 42.4987 1957.43 41.418 1957.4 40.5586C1957.39 40.2201 1957.23 40.0052 1956.93 39.9141L1954.32 39.1523L1954.26 38.1562C1956.08 38.2083 1957.48 38.2344 1958.46 38.2344C1959.73 38.2344 1960.94 38.2083 1962.09 38.1562L1975.08 54.4258C1975.6 55.0768 1976.13 55.7669 1976.68 56.4961C1976.65 55.5977 1976.64 54.7318 1976.64 53.8984V43.7227C1976.64 42.4596 1976.63 41.3724 1976.6 40.4609C1976.59 40.1615 1976.42 39.9661 1976.09 39.875L1973.59 39.1914L1973.54 38.1562C1975.33 38.2083 1976.79 38.2344 1977.91 38.2344C1979.06 38.2344 1980.51 38.2083 1982.27 38.1562L1982.36 39.1523L1979.71 39.9141C1979.41 40.0052 1979.25 40.2201 1979.24 40.5586C1979.2 41.418 1979.18 42.4987 1979.18 43.8008V65.5L1976.93 65.7148L1961.54 46.4375C1961.09 45.8516 1960.56 45.1549 1959.96 44.3477C1959.99 45.3112 1960 46.1966 1960 47.0039V59.3672C1960 60.9036 1960.01 62.1732 1960.04 63.1758ZM2006.68 45.5391L2005.61 45.7148L2004.12 40.1094C2003.09 39.7839 2001.98 39.6211 2000.78 39.6211C1997.9 39.6211 1995.68 40.7018 1994.1 42.8633C1992.53 45.0117 1991.74 47.8307 1991.74 51.3203C1991.74 55.0443 1992.66 58.013 1994.51 60.2266C1996.37 62.4401 1998.95 63.5469 2002.25 63.5469C2004.08 63.5469 2006.02 63.1758 2008.05 62.4336L2008.3 63.5469C2005.7 65.3177 2002.75 66.2031 1999.47 66.2031C1995.21 66.2031 1991.77 64.9206 1989.14 62.3555C1986.52 59.7904 1985.21 56.4115 1985.21 52.2188C1985.21 47.7526 1986.65 44.2174 1989.53 41.6133C1992.41 39.0091 1996.17 37.707 2000.8 37.707C2003.09 37.707 2005.44 37.974 2007.83 38.5078L2007.95 38.7031L2006.68 45.5391ZM2017.11 56.8281L2015.72 60.4805C2015.45 61.1966 2015.23 61.776 2015.08 62.2188C2014.93 62.6484 2014.86 62.9805 2014.86 63.2148C2014.86 63.4362 2014.92 63.6055 2015.04 63.7227C2015.16 63.8398 2015.34 63.931 2015.59 63.9961L2017.46 64.543L2017.52 65.5586C2015.63 65.5195 2014.1 65.5 2012.91 65.5C2011.67 65.5 2010.26 65.5195 2008.67 65.5586L2008.57 64.582L2010.66 63.957C2011.16 63.8138 2011.52 63.5794 2011.76 63.2539C2011.99 62.9154 2012.25 62.4076 2012.54 61.7305L2022.27 38.0391L2024.38 37.7266L2032.79 61.4766C2033.12 62.388 2033.41 63.0065 2033.67 63.332C2033.95 63.6445 2034.33 63.8724 2034.82 64.0156L2036.74 64.582L2036.8 65.5586C2035.04 65.5195 2033.27 65.5 2031.48 65.5C2029.13 65.5 2026.83 65.5195 2024.59 65.5586L2024.49 64.582L2026.43 64.0156C2026.69 63.9375 2026.88 63.8398 2026.99 63.7227C2027.11 63.6055 2027.17 63.4297 2027.17 63.1953C2027.17 62.9349 2027.1 62.5964 2026.97 62.1797C2026.84 61.75 2026.65 61.1901 2026.41 60.5L2025.12 56.8281H2017.11ZM2021.33 45.6172C2021.09 46.2943 2020.84 46.9974 2020.57 47.7266L2017.89 54.7969H2024.41L2022.01 47.7461C2021.76 47.0039 2021.54 46.2943 2021.33 45.6172ZM2047.17 59.3672C2047.17 60.1484 2047.17 60.8516 2047.17 61.4766C2047.18 62.0885 2047.19 62.6484 2047.21 63.1562C2047.22 63.5729 2047.37 63.8268 2047.66 63.918L2049.69 64.582L2049.75 65.5586C2048.3 65.5195 2046.51 65.5 2044.38 65.5C2042.1 65.5 2040.07 65.5195 2038.28 65.5586L2038.18 64.582L2040.8 63.8594C2041.13 63.7682 2041.3 63.5664 2041.33 63.2539C2041.34 62.7331 2041.35 62.1536 2041.35 61.5156C2041.36 60.8646 2041.37 60.1484 2041.37 59.3672V43.8008C2041.37 43.1497 2041.36 42.5573 2041.35 42.0234C2041.35 41.4896 2041.34 41.0013 2041.33 40.5586C2041.32 40.2201 2041.16 40.0052 2040.86 39.9141L2038.24 39.1523L2038.18 38.1562C2040.01 38.2083 2041.88 38.2344 2043.79 38.2344C2044.19 38.2344 2044.69 38.2279 2045.29 38.2148C2045.89 38.1888 2046.62 38.1628 2047.48 38.1367C2048.26 38.1107 2048.91 38.0911 2049.43 38.0781C2049.97 38.0651 2050.38 38.0586 2050.68 38.0586C2054.03 38.0586 2056.54 38.6185 2058.2 39.7383C2059.88 40.8581 2060.72 42.4922 2060.72 44.6406C2060.72 46.5807 2060.21 48.1497 2059.18 49.3477C2058.16 50.5326 2056.67 51.444 2054.69 52.082C2055.78 53.6966 2056.62 55.0052 2057.21 56.0078C2057.81 57.0104 2058.4 58 2059 58.9766C2059.6 59.9401 2060.14 60.793 2060.62 61.5352C2061.12 62.2773 2061.58 62.8633 2062.01 63.293C2062.25 63.4883 2062.47 63.6576 2062.68 63.8008C2062.9 63.944 2063.12 64.0677 2063.36 64.1719C2063.59 64.276 2063.84 64.3672 2064.1 64.4453C2064.38 64.5104 2064.67 64.5755 2065 64.6406L2065.08 65.6367C2063.8 65.819 2062.34 65.9102 2060.7 65.9102C2059.4 65.9102 2058.49 65.8255 2057.97 65.6562C2057.45 65.487 2056.99 65.2461 2056.58 64.9336C2055.98 64.4648 2055.43 63.8529 2054.92 63.0977C2054.43 62.3424 2053.9 61.4896 2053.34 60.5391C2052.78 59.5885 2052.2 58.5794 2051.6 57.5117C2051.02 56.444 2050.4 55.3893 2049.75 54.3477C2049.55 54.0482 2049.39 53.8008 2049.26 53.6055C2049.14 53.4102 2049.02 53.2669 2048.89 53.1758C2048.77 53.0716 2048.64 53 2048.5 52.9609C2048.37 52.9089 2048.2 52.8763 2047.99 52.8633L2047.17 52.8438V59.3672ZM2047.17 51.1445C2047.86 51.1836 2048.48 51.2031 2049.04 51.2031C2050.89 51.2031 2052.25 50.7409 2053.11 49.8164C2053.96 48.8789 2054.39 47.4206 2054.39 45.4414C2054.39 43.5273 2053.98 42.1341 2053.14 41.2617C2052.32 40.3763 2051.04 39.9336 2049.3 39.9336C2049 39.9336 2048.67 39.9466 2048.32 39.9727C2047.98 39.9987 2047.6 40.0378 2047.17 40.0898V51.1445ZM2071.58 38.2344H2076.52C2079.69 38.2344 2082.97 38.2083 2086.37 38.1562L2086.5 38.3125L2085.29 44.8164L2084.24 44.9727L2082.99 40.2266H2075.43V50.5977H2076.48C2077.62 50.5977 2078.83 50.5846 2080.14 50.5586C2080.48 50.5456 2080.7 50.3698 2080.8 50.0312L2081.5 47.3555L2082.79 47.2969C2082.75 49.1849 2082.73 50.5977 2082.73 51.5352C2082.73 52.4466 2082.75 53.8398 2082.79 55.7148L2081.5 55.8125L2080.78 53.0586C2080.68 52.707 2080.48 52.5247 2080.18 52.5117C2078.85 52.4857 2077.61 52.4727 2076.46 52.4727H2075.43V59.1719C2075.43 60.6042 2075.44 62.0234 2075.47 63.4297H2083.28L2085.74 58.293L2086.93 58.1172L2086.46 65.4219L2086.33 65.5586C2083.09 65.5195 2079.93 65.5 2076.86 65.5H2071.68C2070 65.5 2068.27 65.5195 2066.48 65.5586L2066.39 64.582L2069 63.8594C2069.33 63.7682 2069.51 63.5664 2069.53 63.2539C2069.54 62.7331 2069.55 62.1536 2069.55 61.5156C2069.56 60.8646 2069.57 60.1484 2069.57 59.3672V43.8008C2069.57 43.1497 2069.56 42.5573 2069.55 42.0234C2069.55 41.4896 2069.54 41.0013 2069.53 40.5586C2069.52 40.2201 2069.36 40.0052 2069.06 39.9141L2066.45 39.1523L2066.39 38.1562C2068.21 38.2083 2069.94 38.2344 2071.58 38.2344Z" fill="#381802"/>
<rect x="-192.5" y="0.5" width="2281" height="109" stroke="#381802"/>
</svg>
