<svg width="1920" height="301" viewBox="0 0 1920 301" fill="none" xmlns="http://www.w3.org/2000/svg">
<g clip-path="url(#clip0_532_389)">
<path d="M-82 292.898V291.755C-76.0196 291.036 -70.5434 288.064 -66.6985 283.448C-62.8536 278.832 -60.9327 272.925 -61.3311 266.942V47.628C-60.8815 41.6135 -62.7791 35.6581 -66.6289 31.0009C-70.4787 26.3438 -75.9843 23.3437 -82 22.6248V21.4342H-10.7114V22.6248C-16.7583 23.3423 -22.3027 26.3284 -26.2143 30.9743C-30.126 35.6202 -32.1104 41.5761 -31.7631 47.628V139.068C-31.7728 140.165 -31.4198 141.235 -30.7584 142.113C-30.0971 142.99 -29.1641 143.627 -28.1033 143.925C-27.0425 144.223 -25.9128 144.165 -24.8882 143.761C-23.8636 143.357 -23.001 142.628 -22.4334 141.688C10.6273 88.3951 56.2233 20.4817 100.671 21.2437C101.732 21.1985 102.779 21.5063 103.645 22.1186C104.511 22.7308 105.148 23.6126 105.455 24.625L113.876 48.9139C114.219 49.901 114.243 50.9703 113.944 51.9716C113.646 52.9729 113.039 53.856 112.211 54.4969C111.382 55.1378 110.373 55.5044 109.324 55.5451C108.276 55.5859 107.241 55.2988 106.365 54.7241C69.0935 30.9116 31.5354 72.8693 -1.38171 118.494C-2.02264 119.355 -2.36862 120.399 -2.36862 121.471C-2.36862 122.543 -2.02264 123.586 -1.38171 124.447L107.704 265.37C121.34 283.611 134.21 289.802 141.626 291.755V292.898H67.9931V291.755C83.1599 287.468 76.94 273.514 71.8685 266.942L-17.0269 152.403C-17.4828 151.711 -18.1121 151.149 -18.8528 150.772C-19.5935 150.396 -20.42 150.218 -21.2508 150.257C-22.0815 150.295 -22.8879 150.548 -23.5903 150.992C-24.2927 151.435 -24.8668 152.053 -25.2562 152.784C-29.8264 160.257 -32.0891 168.902 -31.7631 177.645V266.942C-32.0603 272.962 -30.053 278.87 -26.1462 283.475C-22.2393 288.08 -16.7236 291.039 -10.7114 291.755V292.898H-82Z" fill="#946245" fill-opacity="0.32"/>
<path d="M150.287 136.878C150.287 124.543 150.287 121.495 135.264 121.495H133.302V120.59L178.755 94.2056C180.21 93.3636 181.856 92.9047 183.539 92.8721L183.97 264.323C183.97 286.325 197.271 291.136 204.304 291.136V292.469H130.432V291.136C139.235 291.136 150.287 286.373 150.287 264.323V136.878Z" fill="#946245" fill-opacity="0.32"/>
<path d="M131.819 17.7184C158.946 -5.66559 209.853 -6.95146 234.398 20.2901C252.913 40.5308 251.669 66.9151 250.76 95.2521V117.684C250.773 118.155 250.933 118.611 251.216 118.99C251.5 119.368 251.894 119.649 252.345 119.795C252.796 119.941 253.281 119.945 253.734 119.806C254.187 119.666 254.586 119.391 254.875 119.017C272.099 96.919 294.682 88.6798 323.676 88.6798C349.847 88.6798 377.262 97.1095 389.271 121.636C389.433 121.979 389.683 122.272 389.996 122.487C390.309 122.702 390.674 122.831 391.053 122.86C391.432 122.889 391.812 122.817 392.155 122.653C392.497 122.488 392.79 122.236 393.003 121.922C409.748 97.5857 434.149 88.5846 463.765 88.5846C502.663 88.5846 534.958 106.634 535.532 148.83L537.302 264.559C537.302 277.323 543.044 291.372 557.636 291.372V292.706H483.668V291.372C499.122 291.372 504.002 277.752 503.572 264.559L502.663 150.973C502.232 116.207 488.309 93.2994 454.818 93.8233C421.327 94.3472 395.299 127.637 395.299 158.879C395.299 194.074 394.199 238.651 394.677 273.846C394.677 286.61 402.811 291.134 417.403 291.134H343.818C359.272 291.134 361.76 287.039 361.282 273.846L362.813 150.973C362.382 116.207 349.129 93.8233 315.542 93.8233C281.955 93.8233 254.301 126.304 254.301 158.879V264.464C254.301 277.228 260.042 291.277 275.066 291.277V292.611H201.289V291.277C216.743 291.277 221.145 277.656 221.145 264.464V136.876C221.145 124.542 220.714 121.494 206.121 121.494H203.92V120.589L246.215 93.9662C246.532 93.7682 246.794 93.4946 246.978 93.1703C247.162 92.846 247.261 92.4811 247.268 92.1088C248.129 64.9149 248.129 41.5785 231.335 22.9571C209.662 -0.855448 165.932 -0.855449 139.856 17.1945H142.057C145.075 17.0554 148.09 17.5269 150.92 18.5807C153.75 19.6344 156.335 21.2485 158.52 23.3252C160.706 25.402 162.445 27.8983 163.633 30.6632C164.822 33.4281 165.434 36.4043 165.434 39.4116C165.434 42.419 164.822 45.3951 163.633 48.16C162.445 50.9249 160.706 53.4212 158.52 55.498C156.335 57.5747 153.75 59.1888 150.92 60.2425C148.09 61.2963 145.075 61.7679 142.057 61.6287C136.085 61.6161 130.36 59.2488 126.137 55.0448C121.913 50.8408 119.535 45.1426 119.522 39.1973C119.623 33.8144 121.838 28.685 125.694 24.9097C127.492 22.3169 129.543 19.908 131.819 17.7184Z" fill="#E38D91"/>
<path d="M553.521 146.354C570.315 112.064 605.242 91.8232 645 91.8232C697.917 91.8232 724.136 124.018 725.236 161.499C725.409 166.041 723.902 170.489 721.001 174C718.1 177.511 714.006 179.841 709.495 180.549L596.008 198.599C593.467 199.002 591.036 199.922 588.869 201.303C586.702 202.683 584.844 204.494 583.411 206.621C581.979 208.749 581.003 211.148 580.544 213.668C580.085 216.188 580.154 218.776 580.745 221.268C582.947 230.739 586.271 239.916 590.649 248.605C597.247 261.182 607.242 271.674 619.507 278.902C631.772 286.13 645.821 289.806 660.072 289.515C687.869 289.515 706.912 274.561 722.27 255.654L724.471 257.416C710.117 280.276 682.511 300.993 641.843 300.993C612.657 300.993 584.812 290.849 566.727 269.751C551.655 252.558 542.374 228.365 542.374 196.265C542.138 178.991 545.955 161.901 553.521 146.354ZM577.444 172.024C577.143 174.91 577.521 177.826 578.55 180.541C579.579 183.256 581.229 185.695 583.37 187.664C585.511 189.633 588.083 191.079 590.883 191.886C593.683 192.692 596.634 192.839 599.5 192.312L656.914 181.549C664.526 179.955 671.871 177.293 678.731 173.643C684.838 170.939 689.992 166.478 693.53 160.834C697.068 155.19 698.829 148.621 698.587 141.973C697.247 84.8223 625.241 86.5369 596.486 120.398C585.386 133.352 579.262 151.974 577.348 172.024H577.444Z" fill="#946245" fill-opacity="0.32"/>
<path d="M701.839 96.3455C701.848 95.8547 702.039 95.3845 702.374 95.0244C702.709 94.6643 703.166 94.4396 703.657 94.3929C746.095 89.6304 763.367 68.1038 767.721 31.1943H770.783L770.352 92.5831C770.352 93.1136 770.564 93.6224 770.941 93.9975C771.318 94.3727 771.829 94.5834 772.362 94.5834H813.03C813.55 94.5834 814.049 94.7891 814.417 95.1553C814.785 95.5215 814.991 96.0182 814.991 96.536C814.992 97.0584 814.786 97.5601 814.42 97.9339C814.053 98.3076 813.554 98.5238 813.03 98.5363H772.362C772.1 98.5299 771.84 98.5757 771.597 98.671C771.353 98.7663 771.131 98.9091 770.944 99.0911C770.757 99.273 770.608 99.4904 770.506 99.7305C770.405 99.9706 770.352 100.228 770.352 100.489V245.46C770.352 259.747 775.137 271.844 785.806 277.988C797.767 285.036 818.532 282.417 828.866 276.226V277.559C820.063 289.894 800.59 296.609 780.256 296.609C759.061 296.609 737.196 284.751 737.196 248.222V119.063C737.196 103.68 735.426 98.3934 718.058 98.3934H703.705C703.172 98.3934 702.661 98.1827 702.284 97.8075C701.907 97.4324 701.695 96.9237 701.695 96.3932L701.839 96.3455Z" fill="#946245" fill-opacity="0.32"/>
<path d="M785.039 96.5362C785.037 96.0497 785.217 95.5798 785.544 95.2187C785.872 94.8575 786.323 94.631 786.809 94.5835C829.295 89.821 846.519 68.2945 850.921 31.4326H853.983L853.553 92.7738C853.553 93.3043 853.764 93.8131 854.141 94.1882C854.518 94.5633 855.029 94.774 855.562 94.774H896.182C896.444 94.7677 896.704 94.8135 896.947 94.9088C897.191 95.0041 897.413 95.1469 897.6 95.3288C897.787 95.5108 897.936 95.7282 898.038 95.9683C898.139 96.2083 898.192 96.4662 898.192 96.7267C898.192 97.2572 897.98 97.7659 897.603 98.1411C897.226 98.5162 896.715 98.7269 896.182 98.7269H855.753C855.229 98.7268 854.725 98.931 854.349 99.2959C853.974 99.6607 853.756 100.157 853.744 100.68V245.65C853.744 259.938 858.528 272.035 869.198 278.226C881.159 285.227 901.923 282.608 912.258 276.464V277.75C903.454 290.085 883.982 296.8 863.648 296.8C842.453 296.8 820.588 284.894 820.588 248.365V119.396C820.588 104.013 818.817 98.7269 801.45 98.7269H787.096C786.832 98.7269 786.571 98.6752 786.327 98.5747C786.084 98.4741 785.862 98.3268 785.675 98.1411C785.489 97.9553 785.341 97.7348 785.24 97.4921C785.139 97.2495 785.087 96.9893 785.087 96.7267L785.039 96.5362Z" fill="#946245" fill-opacity="0.32"/>
</g>
<g clip-path="url(#clip1_532_389)">
<path d="M1009.12 292.898V291.755C1015.1 291.036 1020.58 288.064 1024.42 283.448C1028.27 278.832 1030.19 272.925 1029.79 266.942V47.628C1030.24 41.6135 1028.34 35.6581 1024.49 31.0009C1020.64 26.3438 1015.14 23.3437 1009.12 22.6248V21.4342H1080.41V22.6248C1074.36 23.3423 1068.82 26.3284 1064.91 30.9743C1061 35.6202 1059.01 41.5761 1059.36 47.628V139.068C1059.35 140.165 1059.7 141.235 1060.36 142.113C1061.03 142.99 1061.96 143.627 1063.02 143.925C1064.08 144.223 1065.21 144.165 1066.23 143.761C1067.26 143.357 1068.12 142.628 1068.69 141.688C1101.75 88.3951 1147.35 20.4817 1191.79 21.2437C1192.86 21.1985 1193.9 21.5063 1194.77 22.1186C1195.63 22.7308 1196.27 23.6126 1196.58 24.625L1205 48.9139C1205.34 49.901 1205.37 50.9703 1205.07 51.9716C1204.77 52.9729 1204.16 53.856 1203.33 54.4969C1202.5 55.1378 1201.5 55.5044 1200.45 55.5451C1199.4 55.5859 1198.36 55.2988 1197.49 54.7241C1160.22 30.9116 1122.66 72.8693 1089.74 118.494C1089.1 119.355 1088.75 120.399 1088.75 121.471C1088.75 122.543 1089.1 123.586 1089.74 124.447L1198.83 265.37C1212.46 283.611 1225.33 289.802 1232.75 291.755V292.898H1159.12V291.755C1174.28 287.468 1168.06 273.514 1162.99 266.942L1074.1 152.403C1073.64 151.711 1073.01 151.149 1072.27 150.772C1071.53 150.396 1070.7 150.218 1069.87 150.257C1069.04 150.295 1068.23 150.548 1067.53 150.992C1066.83 151.435 1066.26 152.053 1065.87 152.784C1061.3 160.257 1059.03 168.902 1059.36 177.645V266.942C1059.06 272.962 1061.07 278.87 1064.98 283.475C1068.88 288.08 1074.4 291.039 1080.41 291.755V292.898H1009.12Z" fill="#946245" fill-opacity="0.32"/>
<path d="M1241.41 136.878C1241.41 124.543 1241.41 121.495 1226.39 121.495H1224.42V120.59L1269.88 94.2056C1271.33 93.3636 1272.98 92.9047 1274.66 92.8721L1275.09 264.323C1275.09 286.325 1288.39 291.136 1295.43 291.136V292.469H1221.55V291.136C1230.36 291.136 1241.41 286.373 1241.41 264.323V136.878Z" fill="#946245" fill-opacity="0.32"/>
<path d="M1222.94 17.7184C1250.07 -5.66559 1300.98 -6.95146 1325.52 20.2901C1344.04 40.5308 1342.79 66.9151 1341.88 95.2521V117.684C1341.9 118.155 1342.06 118.611 1342.34 118.99C1342.62 119.368 1343.02 119.649 1343.47 119.795C1343.92 119.941 1344.4 119.945 1344.86 119.806C1345.31 119.666 1345.71 119.391 1346 119.017C1363.22 96.919 1385.8 88.6798 1414.8 88.6798C1440.97 88.6798 1468.38 97.1095 1480.39 121.636C1480.56 121.979 1480.81 122.272 1481.12 122.487C1481.43 122.702 1481.8 122.831 1482.18 122.86C1482.55 122.889 1482.94 122.817 1483.28 122.653C1483.62 122.488 1483.91 122.236 1484.13 121.922C1500.87 97.5857 1525.27 88.5846 1554.89 88.5846C1593.79 88.5846 1626.08 106.634 1626.65 148.83L1628.42 264.559C1628.42 277.323 1634.17 291.372 1648.76 291.372V292.706H1574.79V291.372C1590.24 291.372 1595.12 277.752 1594.69 264.559L1593.79 150.973C1593.35 116.207 1579.43 93.2994 1545.94 93.8233C1512.45 94.3472 1486.42 127.637 1486.42 158.879C1486.42 194.074 1485.32 238.651 1485.8 273.846C1485.8 286.61 1493.93 291.134 1508.53 291.134H1434.94C1450.39 291.134 1452.88 287.039 1452.4 273.846L1453.94 150.973C1453.5 116.207 1440.25 93.8233 1406.66 93.8233C1373.08 93.8233 1345.42 126.304 1345.42 158.879V264.464C1345.42 277.228 1351.16 291.277 1366.19 291.277V292.611H1292.41V291.277C1307.87 291.277 1312.27 277.656 1312.27 264.464V136.876C1312.27 124.542 1311.84 121.494 1297.24 121.494H1295.04V120.589L1337.34 93.9662C1337.65 93.7682 1337.92 93.4946 1338.1 93.1703C1338.28 92.846 1338.38 92.4811 1338.39 92.1088C1339.25 64.9149 1339.25 41.5785 1322.46 22.9571C1300.78 -0.855448 1257.05 -0.855449 1230.98 17.1945H1233.18C1236.2 17.0554 1239.21 17.5269 1242.04 18.5807C1244.87 19.6344 1247.46 21.2485 1249.64 23.3252C1251.83 25.402 1253.57 27.8983 1254.76 30.6632C1255.94 33.4281 1256.56 36.4043 1256.56 39.4116C1256.56 42.419 1255.94 45.3951 1254.76 48.16C1253.57 50.9249 1251.83 53.4212 1249.64 55.498C1247.46 57.5747 1244.87 59.1888 1242.04 60.2425C1239.21 61.2963 1236.2 61.7679 1233.18 61.6287C1227.21 61.6161 1221.48 59.2488 1217.26 55.0448C1213.04 50.8408 1210.66 45.1426 1210.65 39.1973C1210.75 33.8144 1212.96 28.685 1216.82 24.9097C1218.61 22.3169 1220.67 19.908 1222.94 17.7184Z" fill="#E38D91"/>
<path d="M1644.64 146.354C1661.44 112.064 1696.36 91.8232 1736.12 91.8232C1789.04 91.8232 1815.26 124.018 1816.36 161.499C1816.53 166.041 1815.02 170.489 1812.12 174C1809.22 177.511 1805.13 179.841 1800.62 180.549L1687.13 198.599C1684.59 199.002 1682.16 199.922 1679.99 201.303C1677.82 202.683 1675.97 204.494 1674.53 206.621C1673.1 208.749 1672.12 211.148 1671.67 213.668C1671.21 216.188 1671.28 218.776 1671.87 221.268C1674.07 230.739 1677.39 239.916 1681.77 248.605C1688.37 261.182 1698.36 271.674 1710.63 278.902C1722.89 286.13 1736.94 289.806 1751.19 289.515C1778.99 289.515 1798.03 274.561 1813.39 255.654L1815.59 257.416C1801.24 280.276 1773.63 300.993 1732.96 300.993C1703.78 300.993 1675.93 290.849 1657.85 269.751C1642.78 252.558 1633.5 228.365 1633.5 196.265C1633.26 178.991 1637.08 161.901 1644.64 146.354ZM1668.57 172.024C1668.26 174.91 1668.64 177.826 1669.67 180.541C1670.7 183.256 1672.35 185.695 1674.49 187.664C1676.63 189.633 1679.21 191.079 1682.01 191.886C1684.81 192.692 1687.76 192.839 1690.62 192.312L1748.04 181.549C1755.65 179.955 1762.99 177.293 1769.85 173.643C1775.96 170.939 1781.11 166.478 1784.65 160.834C1788.19 155.19 1789.95 148.621 1789.71 141.973C1788.37 84.8223 1716.36 86.5369 1687.61 120.398C1676.51 133.352 1670.38 151.974 1668.47 172.024H1668.57Z" fill="#946245" fill-opacity="0.32"/>
<path d="M1792.96 96.3455C1792.97 95.8547 1793.16 95.3845 1793.5 95.0244C1793.83 94.6643 1794.29 94.4396 1794.78 94.3929C1837.22 89.6304 1854.49 68.1038 1858.84 31.1943H1861.91L1861.48 92.5831C1861.48 93.1136 1861.69 93.6224 1862.06 93.9975C1862.44 94.3727 1862.95 94.5834 1863.48 94.5834H1904.15C1904.67 94.5834 1905.17 94.7891 1905.54 95.1553C1905.91 95.5215 1906.11 96.0182 1906.11 96.536C1906.11 97.0584 1905.91 97.5601 1905.54 97.9339C1905.18 98.3076 1904.68 98.5238 1904.15 98.5363H1863.48C1863.22 98.5299 1862.96 98.5757 1862.72 98.671C1862.48 98.7663 1862.25 98.9091 1862.07 99.0911C1861.88 99.273 1861.73 99.4904 1861.63 99.7305C1861.53 99.9706 1861.48 100.228 1861.48 100.489V245.46C1861.48 259.747 1866.26 271.844 1876.93 277.988C1888.89 285.036 1909.66 282.417 1919.99 276.226V277.559C1911.19 289.894 1891.71 296.609 1871.38 296.609C1850.18 296.609 1828.32 284.751 1828.32 248.222V119.063C1828.32 103.68 1826.55 98.3934 1809.18 98.3934H1794.83C1794.29 98.3934 1793.78 98.1827 1793.41 97.8075C1793.03 97.4324 1792.82 96.9237 1792.82 96.3932L1792.96 96.3455Z" fill="#946245" fill-opacity="0.32"/>
<path d="M1876.16 96.5362C1876.16 96.0497 1876.34 95.5798 1876.67 95.2187C1876.99 94.8575 1877.45 94.631 1877.93 94.5835C1920.42 89.821 1937.64 68.2945 1942.04 31.4326H1945.11L1944.68 92.7738C1944.68 93.3043 1944.89 93.8131 1945.26 94.1882C1945.64 94.5633 1946.15 94.774 1946.69 94.774H1987.31C1987.57 94.7677 1987.83 94.8135 1988.07 94.9088C1988.31 95.0041 1988.54 95.1469 1988.72 95.3288C1988.91 95.5108 1989.06 95.7282 1989.16 95.9683C1989.26 96.2083 1989.31 96.4662 1989.31 96.7267C1989.31 97.2572 1989.1 97.7659 1988.73 98.1411C1988.35 98.5162 1987.84 98.7269 1987.31 98.7269H1946.88C1946.35 98.7268 1945.85 98.931 1945.47 99.2959C1945.1 99.6607 1944.88 100.157 1944.87 100.68V245.65C1944.87 259.938 1949.65 272.035 1960.32 278.226C1972.28 285.227 1993.05 282.608 2003.38 276.464V277.75C1994.58 290.085 1975.1 296.8 1954.77 296.8C1933.58 296.8 1911.71 284.894 1911.71 248.365V119.396C1911.71 104.013 1909.94 98.7269 1892.57 98.7269H1878.22C1877.96 98.7269 1877.69 98.6752 1877.45 98.5747C1877.21 98.4741 1876.99 98.3268 1876.8 98.1411C1876.61 97.9553 1876.46 97.7348 1876.36 97.4921C1876.26 97.2495 1876.21 96.9893 1876.21 96.7267L1876.16 96.5362Z" fill="#946245" fill-opacity="0.32"/>
</g>
<defs>
<clipPath id="clip0_532_389">
<rect width="993.877" height="300.8" fill="white" transform="translate(-82)"/>
</clipPath>
<clipPath id="clip1_532_389">
<rect width="993.877" height="300.8" fill="white" transform="translate(1009.12)"/>
</clipPath>
</defs>
</svg>
