<svg width="129" height="39" viewBox="0 0 129 39" fill="none" xmlns="http://www.w3.org/2000/svg">
<path d="M0 37.9748V37.8266C0.776218 37.7335 1.487 37.348 1.98605 36.7496C2.4851 36.1511 2.73443 35.3852 2.68271 34.6095V6.17459C2.74107 5.39479 2.49478 4.62264 1.99509 4.01883C1.4954 3.41501 0.780808 3.02603 0 2.93282V2.77845H9.25288V2.93282C8.46802 3.02586 7.74839 3.41301 7.24068 4.01537C6.73297 4.61773 6.47541 5.38994 6.52048 6.17459V18.0302C6.51923 18.1724 6.56505 18.3111 6.65089 18.4249C6.73673 18.5387 6.85782 18.6213 6.9955 18.6599C7.13319 18.6985 7.27982 18.691 7.41281 18.6386C7.5458 18.5862 7.65775 18.4917 7.73143 18.3698C12.0225 11.4602 17.9406 2.65496 23.7097 2.75375C23.8475 2.7479 23.9833 2.78781 24.0957 2.86719C24.2082 2.94657 24.2909 3.0609 24.3307 3.19216L25.4237 6.34131C25.4682 6.4693 25.4713 6.60793 25.4325 6.73776C25.3938 6.86758 25.3151 6.98208 25.2075 7.06518C25.1 7.14827 24.969 7.1958 24.8329 7.20108C24.6968 7.20636 24.5624 7.16914 24.4487 7.09463C19.6111 4.00724 14.7363 9.44723 10.4638 15.3627C10.3806 15.4743 10.3357 15.6096 10.3357 15.7486C10.3357 15.8876 10.3806 16.0229 10.4638 16.1345L24.6226 34.4058C26.3924 36.7707 28.0629 37.5734 29.0255 37.8266V37.9748H19.4683V37.8266C21.4369 37.2709 20.6296 35.4616 19.9713 34.6095L8.43316 19.7591C8.37399 19.6694 8.2923 19.5965 8.19617 19.5477C8.10003 19.4989 7.99275 19.4758 7.88493 19.4808C7.7771 19.4858 7.67244 19.5186 7.58127 19.5761C7.49011 19.6336 7.41558 19.7137 7.36504 19.8085C6.77185 20.7774 6.47816 21.8983 6.52048 23.0318V34.6095C6.48191 35.39 6.74244 36.1561 7.24953 36.7531C7.75661 37.3501 8.47253 37.7338 9.25288 37.8266V37.9748H0Z" fill="black"/>
<path d="M30.1494 17.7465C30.1494 16.1473 30.1494 15.7521 28.1995 15.7521H27.9449V15.6347L33.8443 12.2139C34.0332 12.1047 34.2469 12.0452 34.4653 12.041L34.5212 34.2703C34.5212 37.123 36.2476 37.7467 37.1605 37.7467V37.9196H27.5723V37.7467C28.7149 37.7467 30.1494 37.1292 30.1494 34.2703V17.7465Z" fill="black"/>
<path d="M27.7522 2.29706C31.2733 -0.734766 37.8807 -0.901485 41.0664 2.6305C43.4697 5.25478 43.3082 8.67562 43.1902 12.3496V15.2579C43.1919 15.3191 43.2126 15.3783 43.2494 15.4273C43.2862 15.4763 43.3374 15.5128 43.3959 15.5317C43.4544 15.5507 43.5174 15.5511 43.5762 15.5331C43.635 15.515 43.6867 15.4793 43.7243 15.4308C45.9599 12.5657 48.891 11.4975 52.6543 11.4975C56.0511 11.4975 59.6094 12.5904 61.1681 15.7705C61.1892 15.8149 61.2217 15.8529 61.2623 15.8808C61.3029 15.9086 61.3503 15.9253 61.3995 15.9291C61.4487 15.9328 61.498 15.9236 61.5425 15.9022C61.5869 15.8809 61.6249 15.8482 61.6525 15.8075C63.826 12.6522 66.9931 11.4852 70.8371 11.4852C75.8858 11.4852 80.0776 13.8254 80.1521 19.2963L80.3818 34.301C80.3818 35.9559 81.127 37.7774 83.0211 37.7774V37.9503H73.4204V37.7774C75.4263 37.7774 76.0597 36.0114 76.0038 34.301L75.8858 19.5741C75.8299 15.0665 74.0228 12.0965 69.6758 12.1644C65.3288 12.2323 61.9506 16.5485 61.9506 20.5991C61.9506 25.1623 61.8078 30.9419 61.8699 35.5051C61.8699 37.1599 62.9256 37.7466 64.8196 37.7466H55.2687C57.2745 37.7466 57.5974 37.2155 57.5353 35.5051L57.734 19.5741C57.6781 15.0665 55.958 12.1644 51.5986 12.1644C47.2391 12.1644 43.6498 16.3756 43.6498 20.5991V34.2887C43.6498 35.9435 44.395 37.7651 46.3449 37.7651V37.938H36.7691V37.7651C38.7749 37.7651 39.3463 35.9991 39.3463 34.2887V17.7464C39.3463 16.1471 39.2904 15.7519 37.3963 15.7519H37.1107V15.6346L42.6003 12.1829C42.6414 12.1572 42.6754 12.1218 42.6993 12.0797C42.7232 12.0377 42.7361 11.9904 42.7369 11.9421C42.8487 8.41628 42.8487 5.39063 40.669 2.97629C37.8559 -0.111112 32.1799 -0.111112 28.7955 2.22914H29.0812C29.4729 2.2111 29.8642 2.27224 30.2315 2.40886C30.5988 2.54548 30.9344 2.75475 31.218 3.02401C31.5016 3.29327 31.7274 3.61693 31.8816 3.97541C32.0359 4.3339 32.1154 4.71976 32.1154 5.10968C32.1154 5.49959 32.0359 5.88546 31.8816 6.24394C31.7274 6.60243 31.5016 6.92608 31.218 7.19534C30.9344 7.4646 30.5988 7.67387 30.2315 7.81049C29.8642 7.94712 29.4729 8.00826 29.0812 7.99022C28.3059 7.98859 27.5629 7.68165 27.0147 7.13659C26.4666 6.59152 26.1579 5.85273 26.1562 5.08189C26.1692 4.38397 26.4568 3.71893 26.9573 3.22945C27.1906 2.89328 27.4569 2.58095 27.7522 2.29706Z" fill="#E38D91"/>
<path d="M82.4873 18.9754C84.667 14.5296 89.2003 11.9053 94.3608 11.9053C101.229 11.9053 104.632 16.0794 104.775 20.939C104.797 21.528 104.602 22.1047 104.225 22.5599C103.849 23.0151 103.317 23.3172 102.732 23.4089L88.0018 25.7492C87.672 25.8014 87.3566 25.9208 87.0753 26.0997C86.7939 26.2787 86.5528 26.5135 86.3669 26.7893C86.1809 27.0652 86.0543 27.3762 85.9947 27.703C85.9352 28.0297 85.9441 28.3652 86.0208 28.6884C86.3066 29.9163 86.7381 31.1061 87.3063 32.2327C88.1627 33.8633 89.4599 35.2237 91.0519 36.1608C92.6439 37.0979 94.4673 37.5745 96.317 37.5368C99.925 37.5368 102.397 35.598 104.39 33.1466L104.676 33.375C102.813 36.3389 99.2295 39.025 93.951 39.025C90.1629 39.025 86.5487 37.7097 84.2013 34.9743C82.2451 32.7452 81.0404 29.6084 81.0404 25.4466C81.0098 23.207 81.5052 20.9911 82.4873 18.9754ZM85.5923 22.3036C85.5532 22.6778 85.6024 23.0559 85.7359 23.4079C85.8694 23.7599 86.0836 24.0761 86.3615 24.3314C86.6394 24.5868 86.9733 24.7742 87.3367 24.8788C87.7001 24.9834 88.0831 25.0023 88.4551 24.9341L95.9071 23.5386C96.8951 23.3319 97.8485 22.9868 98.7389 22.5136C99.5315 22.1629 100.2 21.5845 100.66 20.8528C101.119 20.121 101.348 19.2693 101.316 18.4073C101.142 10.9976 91.7961 11.2199 88.0639 15.6102C86.6232 17.2897 85.8283 19.704 85.5799 22.3036H85.5923Z" fill="black"/>
<path d="M101.738 12.492C101.74 12.4284 101.764 12.3674 101.808 12.3207C101.851 12.2741 101.911 12.2449 101.974 12.2389C107.483 11.6214 109.724 8.83039 110.29 4.04492H110.687L110.631 12.0042C110.631 12.073 110.659 12.139 110.707 12.1876C110.756 12.2362 110.823 12.2636 110.892 12.2636H116.17C116.238 12.2636 116.303 12.2902 116.35 12.3377C116.398 12.3852 116.425 12.4496 116.425 12.5167C116.425 12.5845 116.398 12.6495 116.351 12.698C116.303 12.7464 116.238 12.7745 116.17 12.7761H110.892C110.858 12.7753 110.824 12.7812 110.793 12.7936C110.761 12.8059 110.732 12.8244 110.708 12.848C110.684 12.8716 110.664 12.8998 110.651 12.9309C110.638 12.962 110.631 12.9955 110.631 13.0292V31.8253C110.631 33.6778 111.252 35.2462 112.637 36.0427C114.189 36.9566 116.885 36.617 118.226 35.8142V35.9871C117.083 37.5864 114.556 38.4571 111.917 38.4571C109.165 38.4571 106.328 36.9195 106.328 32.1835V15.4374C106.328 13.443 106.098 12.7576 103.844 12.7576H101.981C101.911 12.7576 101.845 12.7302 101.796 12.6816C101.747 12.633 101.72 12.567 101.72 12.4982L101.738 12.492Z" fill="black"/>
<path d="M112.537 12.5161C112.537 12.4531 112.56 12.3921 112.603 12.3453C112.645 12.2985 112.704 12.2691 112.767 12.263C118.281 11.6455 120.517 8.85449 121.088 4.0752H121.486L121.43 12.0283C121.43 12.0971 121.457 12.1631 121.506 12.2117C121.555 12.2603 121.621 12.2877 121.691 12.2877H126.963C126.997 12.2868 127.031 12.2928 127.062 12.3051C127.094 12.3175 127.123 12.336 127.147 12.3596C127.171 12.3832 127.191 12.4114 127.204 12.4425C127.217 12.4736 127.224 12.5071 127.224 12.5408C127.224 12.6096 127.196 12.6756 127.147 12.7242C127.098 12.7729 127.032 12.8002 126.963 12.8002H121.715C121.647 12.8002 121.582 12.8266 121.533 12.8739C121.484 12.9213 121.456 12.9856 121.455 13.0533V31.8494C121.455 33.7019 122.076 35.2703 123.46 36.073C125.013 36.9807 127.708 36.6411 129.049 35.8445V36.0112C127.907 37.6105 125.379 38.4811 122.74 38.4811C119.989 38.4811 117.151 36.9375 117.151 32.2014V15.48C117.151 13.4856 116.921 12.8002 114.667 12.8002H112.804C112.77 12.8002 112.736 12.7935 112.704 12.7804C112.673 12.7674 112.644 12.7483 112.62 12.7242C112.595 12.7001 112.576 12.6715 112.563 12.6401C112.55 12.6086 112.543 12.5749 112.543 12.5408L112.537 12.5161Z" fill="black"/>
</svg>
